<svg version="1.0" xmlns="http://www.w3.org/2000/svg"
 width="108px" height="108px" 
 preserveAspectRatio="xMidYMid meet">
<svg x="31.78" y="24.17px" version="1.0" xmlns="http://www.w3.org/2000/svg"
 width="44.44px" height="59.66px" viewBox="0 0 400.000000 537.000000"
 preserveAspectRatio="xMidYMid meet">
<g transform="translate(0.000000,537.000000) scale(0.100000,-0.100000)"
fill="rgb(8, 47, 112)" stroke="none">
<path d="M1830 4773 c-78 -8 -230 -43 -312 -73 -206 -75 -411 -239 -545 -435
-185 -272 -238 -648 -139 -993 66 -229 167 -450 711 -1557 151 -307 261 -535
300 -620 26 -57 43 -74 81 -81 84 -16 90 -8 284 371 73 143 163 316 200 385
37 69 95 179 130 245 34 66 80 152 100 190 468 880 552 1095 554 1415 1 165
-17 274 -67 405 -148 389 -477 662 -877 729 -90 14 -344 26 -420 19z m307
-289 c240 -42 448 -155 579 -313 62 -75 136 -217 159 -306 34 -131 36 -320 6
-473 -14 -72 -80 -267 -97 -289 -12 -16 -15 -16 -23 -3 -5 8 -65 96 -133 195
-68 99 -157 228 -197 288 -40 59 -82 112 -93 118 -36 19 -70 -6 -126 -94 -29
-46 -52 -87 -52 -91 0 -4 17 -33 38 -64 78 -115 88 -181 36 -249 -42 -55 -76
-68 -191 -68 -56 0 -105 -3 -108 -7 -10 -10 30 -28 124 -55 180 -51 303 -149
341 -270 23 -75 24 -85 9 -151 -13 -63 -64 -124 -132 -158 -43 -22 -70 -27
-196 -35 -219 -14 -264 -29 -296 -96 -16 -33 -16 -38 0 -79 27 -72 92 -117
262 -185 156 -62 200 -103 191 -183 -11 -92 -68 -129 -238 -151 -63 -8 -117
-15 -122 -15 -4 0 -8 -6 -8 -14 0 -8 20 -21 45 -29 57 -20 148 -80 169 -112
16 -24 15 -28 -23 -96 l-39 -71 -7 32 c-10 46 -60 90 -156 137 -46 22 -92 49
-102 61 -42 46 -38 124 8 172 32 34 77 47 217 64 60 7 111 15 114 19 17 17
-13 38 -103 72 -239 92 -342 193 -343 338 0 95 34 155 117 203 65 39 97 45
258 53 126 6 157 11 192 29 59 31 77 61 70 117 -13 90 -84 160 -209 205 -149
53 -194 72 -213 88 -74 63 -87 136 -35 195 38 44 91 57 195 50 147 -9 152 22
33 209 -46 73 -120 190 -164 260 -112 180 -126 181 -230 16 -39 -62 -139 -219
-221 -348 -82 -129 -166 -261 -186 -292 -20 -32 -41 -58 -46 -58 -10 0 -52 99
-82 194 -41 126 -55 294 -39 462 23 248 89 404 229 545 119 119 229 181 398
224 142 35 257 38 420 9z"/>
<path d="M1495 1124 c-16 -2 -77 -9 -135 -15 -175 -19 -280 -62 -280 -114 0
-48 126 -126 285 -178 305 -99 722 -115 1040 -40 186 43 318 98 368 151 36 37
33 70 -8 93 -60 35 -468 100 -529 85 -15 -4 -42 -29 -66 -61 -71 -96 -141
-135 -240 -135 -95 0 -162 44 -209 137 -32 65 -63 83 -135 82 -33 -1 -74 -4
-91 -5z"/>
</g>
</svg>
</svg>
