<svg width="375" height="812" viewBox="0 0 375 812" fill="none" xmlns="http://www.w3.org/2000/svg">
<mask id="mask0_6_87" style="mask-type:luminance" maskUnits="userSpaceOnUse" x="0" y="0" width="375" height="812">
<path d="M375 0H0V812H375V0Z" fill="white"/>
</mask>
<g mask="url(#mask0_6_87)">
<path d="M375 0H0V812H375V0Z" fill="#082F70"/>
<path d="M375 0H0V812H375V0Z" fill="url(#paint0_linear_6_87)"/>
<path opacity="0.35" d="M336.5 20.0026C336.5 18.806 337.47 17.8359 338.667 17.8359H355.333C356.53 17.8359 357.5 18.806 357.5 20.0026V26.0026C357.5 27.1992 356.53 28.1693 355.333 28.1693H338.667C337.47 28.1693 336.5 27.1992 336.5 26.0026V20.0026Z" stroke="white"/>
<path opacity="0.4" d="M359 21.0039V25.0039C359.805 24.6651 360.328 23.877 360.328 23.0039C360.328 22.1308 359.805 21.3427 359 21.0039Z" fill="white"/>
<path d="M338 20.4359C338 19.8284 338.492 19.3359 339.1 19.3359H354.9C355.508 19.3359 356 19.8284 356 20.4359V25.5693C356 26.1768 355.508 26.6693 354.9 26.6693H339.1C338.492 26.6693 338 26.1768 338 25.5693V20.4359Z" fill="white"/>
<path fill-rule="evenodd" clip-rule="evenodd" d="M323.324 19.6094C325.54 19.6095 327.671 20.4609 329.277 21.9877C329.398 22.1056 329.591 22.1041 329.71 21.9844L330.866 20.8177C330.927 20.757 330.96 20.6747 330.96 20.5891C330.959 20.5036 330.925 20.4217 330.864 20.3617C326.649 16.3221 319.999 16.3221 315.784 20.3617C315.723 20.4217 315.688 20.5035 315.688 20.5891C315.687 20.6746 315.721 20.7569 315.781 20.8177L316.937 21.9844C317.056 22.1043 317.25 22.1057 317.37 21.9877C318.977 20.4608 321.108 19.6094 323.324 19.6094ZM323.324 23.405C324.542 23.405 325.716 23.8575 326.618 24.6747C326.74 24.7907 326.932 24.7882 327.051 24.669L328.206 23.5024C328.267 23.4412 328.301 23.3581 328.3 23.2719C328.299 23.1856 328.263 23.1033 328.201 23.0434C325.453 20.487 321.197 20.487 318.449 23.0434C318.387 23.1033 318.352 23.1857 318.351 23.272C318.35 23.3582 318.384 23.4413 318.445 23.5024L319.599 24.669C319.718 24.7882 319.91 24.7907 320.032 24.6747C320.934 23.858 322.107 23.4055 323.324 23.405ZM325.637 25.9588C325.639 26.0454 325.605 26.1288 325.543 26.1894L323.546 28.205C323.487 28.2643 323.407 28.2976 323.324 28.2976C323.241 28.2976 323.161 28.2643 323.102 28.205L321.105 26.1894C321.043 26.1287 321.009 26.0453 321.011 25.9588C321.013 25.8723 321.05 25.7903 321.114 25.7324C322.39 24.6535 324.258 24.6535 325.534 25.7324C325.598 25.7904 325.635 25.8723 325.637 25.9588Z" fill="white"/>
<path fill-rule="evenodd" clip-rule="evenodd" d="M309.664 17.668H308.664C308.112 17.668 307.664 18.1157 307.664 18.668V27.3346C307.664 27.8869 308.112 28.3346 308.664 28.3346H309.664C310.216 28.3346 310.664 27.8869 310.664 27.3346V18.668C310.664 18.1157 310.216 17.668 309.664 17.668ZM303.997 20.0013H304.997C305.55 20.0013 305.997 20.449 305.997 21.0013V27.3346C305.997 27.8869 305.55 28.3346 304.997 28.3346H303.997C303.445 28.3346 302.997 27.8869 302.997 27.3346V21.0013C302.997 20.449 303.445 20.0013 303.997 20.0013ZM300.331 22.3346H299.331C298.778 22.3346 298.331 22.7824 298.331 23.3346V27.3346C298.331 27.8869 298.778 28.3346 299.331 28.3346H300.331C300.883 28.3346 301.331 27.8869 301.331 27.3346V23.3346C301.331 22.7824 300.883 22.3346 300.331 22.3346ZM295.664 24.3346H294.664C294.112 24.3346 293.664 24.7824 293.664 25.3346V27.3346C293.664 27.8869 294.112 28.3346 294.664 28.3346H295.664C296.216 28.3346 296.664 27.8869 296.664 27.3346V25.3346C296.664 24.7824 296.216 24.3346 295.664 24.3346Z" fill="white"/>
<path d="M39.0871 28.18C38.3571 28.18 37.7371 28.04 37.2271 27.76C36.7171 27.47 36.3221 27.095 36.0421 26.635C35.7721 26.175 35.6071 25.68 35.5471 25.15H37.4371C37.5271 25.59 37.7121 25.93 37.9921 26.17C38.2821 26.4 38.6571 26.515 39.1171 26.515C39.5471 26.515 39.9171 26.39 40.2271 26.14C40.5471 25.88 40.7971 25.495 40.9771 24.985C41.1571 24.465 41.2571 23.82 41.2771 23.05C41.2771 23.03 41.2771 23.005 41.2771 22.975C41.2771 22.945 41.2771 22.92 41.2771 22.9C41.1371 23.16 40.9321 23.4 40.6621 23.62C40.3921 23.83 40.0871 23.995 39.7471 24.115C39.4171 24.235 39.0621 24.295 38.6821 24.295C38.1121 24.295 37.5721 24.155 37.0621 23.875C36.5521 23.595 36.1421 23.2 35.8321 22.69C35.5221 22.18 35.3671 21.575 35.3671 20.875C35.3671 20.235 35.5221 19.645 35.8321 19.105C36.1421 18.565 36.5721 18.135 37.1221 17.815C37.6721 17.485 38.3071 17.32 39.0271 17.32C39.8271 17.32 40.4971 17.465 41.0371 17.755C41.5771 18.045 42.0071 18.435 42.3271 18.925C42.6571 19.415 42.8971 19.965 43.0471 20.575C43.1971 21.175 43.2721 21.785 43.2721 22.405C43.2721 23.575 43.1071 24.595 42.7771 25.465C42.4471 26.325 41.9721 26.995 41.3521 27.475C40.7321 27.945 39.9771 28.18 39.0871 28.18ZM39.1621 22.585C39.5221 22.585 39.8421 22.51 40.1221 22.36C40.4021 22.21 40.6221 22.005 40.7821 21.745C40.9421 21.475 41.0221 21.17 41.0221 20.83C41.0221 20.48 40.9421 20.17 40.7821 19.9C40.6221 19.63 40.3971 19.425 40.1071 19.285C39.8271 19.135 39.5071 19.06 39.1471 19.06C38.7971 19.06 38.4821 19.135 38.2021 19.285C37.9221 19.435 37.7021 19.64 37.5421 19.9C37.3921 20.16 37.3171 20.465 37.3171 20.815C37.3171 21.165 37.3921 21.475 37.5421 21.745C37.7021 22.005 37.9221 22.21 38.2021 22.36C38.4821 22.51 38.8021 22.585 39.1621 22.585ZM45.3939 28.075C45.0239 28.075 44.7239 27.965 44.4939 27.745C44.2639 27.515 44.1489 27.235 44.1489 26.905C44.1489 26.575 44.2639 26.3 44.4939 26.08C44.7239 25.85 45.0239 25.735 45.3939 25.735C45.7639 25.735 46.0639 25.85 46.2939 26.08C46.5239 26.3 46.6389 26.575 46.6389 26.905C46.6389 27.235 46.5239 27.515 46.2939 27.745C46.0639 27.965 45.7639 28.075 45.3939 28.075ZM45.3939 22.6C45.0239 22.6 44.7239 22.49 44.4939 22.27C44.2639 22.04 44.1489 21.76 44.1489 21.43C44.1489 21.1 44.2639 20.825 44.4939 20.605C44.7239 20.375 45.0239 20.26 45.3939 20.26C45.7639 20.26 46.0639 20.375 46.2939 20.605C46.5239 20.825 46.6389 21.1 46.6389 21.43C46.6389 21.76 46.5239 22.04 46.2939 22.27C46.0639 22.49 45.7639 22.6 45.3939 22.6ZM52.6475 28V26.095H47.4875V24.49L52.3775 17.5H54.6725V24.34H56.0375V26.095H54.6725V28H52.6475ZM49.6475 24.34H52.7825V19.735L49.6475 24.34ZM58.3784 28V19.825L56.5334 20.305V18.7L59.2484 17.5H60.4784V28H58.3784Z" fill="white"/>
<path opacity="0.6" fill-rule="evenodd" clip-rule="evenodd" d="M210.922 531.045C215.758 522.131 227.849 522.131 232.685 531.045L276.475 611.756L304.373 560.294C309.21 551.38 321.3 551.38 326.136 560.294C344.81 594.712 364.292 628.786 383.785 662.877C413.774 715.326 443.785 767.814 470.905 821.652C467.787 821.652 462.364 821.701 455.124 821.765H455.115H455.113C418.392 822.093 334.951 822.837 268.281 819.808C239.92 820.931 211.12 822.344 184.578 823.78C187.441 829.003 189.125 832.073 189.278 832.353C189.311 832.413 189.308 832.409 189.34 832.469C198.111 848.963 196.256 848.125 191.21 845.846C188.079 844.432 183.72 842.464 179.909 843.735C179.909 843.735 150.127 841.623 111.165 839.441C121.308 857.959 128.049 870.252 128.364 870.826C128.397 870.885 128.394 870.882 128.426 870.941C137.197 887.436 135.342 886.598 130.296 884.319C127.165 882.905 122.806 880.936 118.995 882.208C118.995 882.208 -8.43697 873.17 -80.9595 873.17C-87.4821 873.17 -91.5588 865.632 -88.2975 859.602L9.15952 679.398C12.4208 673.367 20.5741 673.367 23.8354 679.398C27.6048 686.368 31.9079 694.299 36.5699 702.876L70.0736 640.925C73.3349 634.895 81.4882 634.895 84.7495 640.925C93.5627 657.221 105.293 678.775 117.708 701.533C149.933 642.805 187.422 574.36 210.922 531.045Z" fill="url(#paint1_linear_6_87)"/>
<path opacity="0.6" fill-rule="evenodd" clip-rule="evenodd" d="M276.212 611.878L286.926 592C296.748 606.198 314.825 624.192 304.226 644.99C299.3 655.361 290.702 659.407 282.652 660.699C275.601 661.831 267.85 661.034 261.814 660.412C258.603 660.082 246.491 656.561 246.491 662.125C246.491 669.368 266.21 672.104 270.488 673.199C286.067 677.188 302.406 681.426 314.825 692.796C325.787 702.832 331.802 718.998 331.995 734.929C332.207 752.389 325.423 769.568 310.491 778.084C298.636 784.845 283.478 785.73 270.846 786.34C257.053 787.008 245.603 787.356 236.838 790.839C228.325 794.222 224.029 801.286 222.885 810.707C221.626 821.067 224.668 827.469 229.937 832.583C235.862 838.334 244.802 842.574 255.473 846.617C257.998 847.573 260.68 848.536 263.421 849.519C271.317 852.353 279.696 855.359 286.165 858.891C290.684 861.359 295.348 864.606 298.764 869.19C302.441 874.124 304.378 880.239 303.675 887.244C303.078 893.19 301.085 898.446 297.523 902.621C294.046 906.697 289.701 909.008 285.519 910.349C277.608 912.886 268.059 912.562 260.476 912.262C259.957 912.242 259.446 912.221 258.942 912.201C251.181 911.889 245.089 911.645 240.432 912.617C238.12 913.099 237.022 913.738 236.555 914.133C236.306 914.343 236.001 914.629 235.788 915.727C235.648 916.452 235.73 916.556 235.789 916.63C235.798 916.641 235.806 916.652 235.813 916.663C236.132 917.207 237.076 918.331 239.607 920.088C241.972 921.731 244.865 923.364 248.574 925.458L249.201 925.811C253.046 927.984 257.513 930.532 262.018 933.628C271.114 939.879 280.762 948.616 287.466 962.312C294.178 976.025 297.454 993.709 295.457 1017L275.937 1015.06C277.665 994.906 274.699 981.493 270.121 972.139C265.534 962.769 258.842 956.471 251.466 951.403C247.735 948.839 243.931 946.656 240.089 944.486C239.798 944.321 239.506 944.156 239.211 943.99C235.781 942.056 232.121 939.992 228.977 937.809C225.597 935.462 221.826 932.332 219.241 927.93C216.389 923.074 215.429 917.452 216.598 911.42C217.717 905.653 220.425 900.946 224.443 897.549C228.243 894.337 232.665 892.754 236.698 891.912C243.712 890.448 252.103 890.803 259.097 891.099C259.812 891.129 260.513 891.159 261.196 891.186C269.474 891.513 275.657 891.503 279.92 890.137C281.825 889.526 282.679 888.831 283.081 888.359C283.399 887.987 283.967 887.153 284.185 884.979C284.297 883.864 284.109 883.241 283.47 882.382C282.569 881.173 280.725 879.572 277.293 877.699C272.214 874.925 265.984 872.689 258.655 870.058C255.612 868.965 252.38 867.805 248.962 866.51C238.183 862.426 225.896 857.066 216.806 848.243C207.061 838.784 201.301 825.637 203.447 807.974C205.517 790.937 214.713 777.148 230.047 771.054C241.327 766.572 255.016 765.951 266.741 765.42C278.092 764.906 291.047 765.302 301.31 759.449C317.799 750.045 314.63 720.311 302.121 708.859C295.899 703.162 287.075 699.574 276.692 696.581C262.516 692.494 244.192 691.066 233.355 679.201C225.943 671.087 224.499 657.069 230.767 647.706C237.996 636.91 251.674 638.197 262.611 639.308C269.556 640.013 275.145 640.58 279.759 639.839C288.787 638.39 288.157 631.095 284.169 624.192C281.521 619.607 279.022 616.246 276.212 611.878Z" fill="url(#paint2_linear_6_87)"/>
<path opacity="0.1" d="M237.119 490.907C240.076 490.907 242.473 488.51 242.473 485.553C242.473 482.596 240.076 480.199 237.119 480.199C234.162 480.199 231.765 482.596 231.765 485.553C231.765 488.51 234.162 490.907 237.119 490.907Z" fill="url(#paint3_linear_6_87)"/>
<path opacity="0.1" d="M208.572 462.348C211.529 462.348 213.926 459.951 213.926 456.994C213.926 454.037 211.529 451.64 208.572 451.64C205.615 451.64 203.218 454.037 203.218 456.994C203.218 459.951 205.615 462.348 208.572 462.348Z" fill="url(#paint4_linear_6_87)"/>
<path opacity="0.05" d="M64.0178 424.876C66.9746 424.876 69.3715 422.479 69.3715 419.522C69.3715 416.565 66.9746 414.168 64.0178 414.168C61.061 414.168 58.6641 416.565 58.6641 419.522C58.6641 422.479 61.061 424.876 64.0178 424.876Z" fill="url(#paint5_linear_6_87)"/>
<path opacity="0.05" d="M14.0178 384.872C16.9746 384.872 19.3715 382.475 19.3715 379.518C19.3715 376.561 16.9746 374.164 14.0178 374.164C11.061 374.164 8.66406 376.561 8.66406 379.518C8.66406 382.475 11.061 384.872 14.0178 384.872Z" fill="url(#paint6_linear_6_87)"/>
<path opacity="0.05" d="M260.322 351.708C263.279 351.708 265.676 349.311 265.676 346.354C265.676 343.397 263.279 341 260.322 341C257.365 341 254.968 343.397 254.968 346.354C254.968 349.311 257.365 351.708 260.322 351.708Z" fill="url(#paint7_linear_6_87)"/>
<path opacity="0.05" d="M113.619 378.477C116.576 378.477 118.973 376.08 118.973 373.123C118.973 370.166 116.576 367.769 113.619 367.769C110.662 367.769 108.265 370.166 108.265 373.123C108.265 376.08 110.662 378.477 113.619 378.477Z" fill="url(#paint8_linear_6_87)"/>
<path opacity="0.1" d="M208.572 408.813C211.529 408.813 213.926 406.416 213.926 403.459C213.926 400.502 211.529 398.105 208.572 398.105C205.615 398.105 203.218 400.502 203.218 403.459C203.218 406.416 205.615 408.813 208.572 408.813Z" fill="url(#paint9_linear_6_87)"/>
<path opacity="0.15" d="M186.266 514.102C188.73 514.102 190.727 512.105 190.727 509.641C190.727 507.177 188.73 505.18 186.266 505.18C183.802 505.18 181.805 507.177 181.805 509.641C181.805 512.105 183.802 514.102 186.266 514.102Z" fill="url(#paint10_linear_6_87)"/>
<path opacity="0.1" d="M144.33 496.259C147.287 496.259 149.684 493.862 149.684 490.905C149.684 487.948 147.287 485.551 144.33 485.551C141.373 485.551 138.976 487.948 138.976 490.905C138.976 493.862 141.373 496.259 144.33 496.259Z" fill="url(#paint11_linear_6_87)"/>
<path opacity="0.25" d="M44.3303 526.255C47.2871 526.255 49.684 523.858 49.684 520.901C49.684 517.944 47.2871 515.547 44.3303 515.547C41.3735 515.547 38.9766 517.944 38.9766 520.901C38.9766 523.858 41.3735 526.255 44.3303 526.255Z" fill="url(#paint12_linear_6_87)"/>
<path opacity="0.05" d="M114.33 636.255C117.287 636.255 119.684 633.858 119.684 630.901C119.684 627.944 117.287 625.547 114.33 625.547C111.373 625.547 108.976 627.944 108.976 630.901C108.976 633.858 111.373 636.255 114.33 636.255Z" fill="url(#paint13_linear_6_87)"/>
<path opacity="0.25" d="M142.546 581.915C144.517 581.915 146.115 580.317 146.115 578.346C146.115 576.375 144.517 574.777 142.546 574.777C140.575 574.777 138.977 576.375 138.977 578.346C138.977 580.317 140.575 581.915 142.546 581.915Z" fill="url(#paint14_linear_6_87)"/>
<path opacity="0.04" d="M85.4285 531.955C87.3997 531.955 88.9977 530.357 88.9977 528.386C88.9977 526.415 87.3997 524.817 85.4285 524.817C83.4573 524.817 81.8594 526.415 81.8594 528.386C81.8594 530.357 83.4573 531.955 85.4285 531.955Z" fill="url(#paint15_linear_6_87)"/>
<path opacity="0.04" d="M79.4285 591.951C81.3997 591.951 82.9977 590.353 82.9977 588.382C82.9977 586.411 81.3997 584.813 79.4285 584.813C77.4573 584.813 75.8594 586.411 75.8594 588.382C75.8594 590.353 77.4573 591.951 79.4285 591.951Z" fill="url(#paint16_linear_6_87)"/>
<path opacity="0.04" d="M5.42853 561.951C7.39971 561.951 8.99767 560.353 8.99767 558.382C8.99767 556.411 7.39971 554.813 5.42853 554.813C3.45734 554.813 1.85938 556.411 1.85938 558.382C1.85938 560.353 3.45734 561.951 5.42853 561.951Z" fill="url(#paint17_linear_6_87)"/>
<path opacity="0.05" d="M28.327 614.037C30.2982 614.037 31.8962 612.439 31.8962 610.468C31.8962 608.497 30.2982 606.899 28.327 606.899C26.3558 606.899 24.7579 608.497 24.7579 610.468C24.7579 612.439 26.3558 614.037 28.327 614.037Z" fill="url(#paint18_linear_6_87)"/>
<path opacity="0.1" d="M172.874 553.369C174.845 553.369 176.443 551.771 176.443 549.8C176.443 547.829 174.845 546.231 172.874 546.231C170.903 546.231 169.305 547.829 169.305 549.8C169.305 551.771 170.903 553.369 172.874 553.369Z" fill="url(#paint19_linear_6_87)"/>
<path opacity="0.25" d="M124.694 457.001C126.665 457.001 128.263 455.403 128.263 453.432C128.263 451.461 126.665 449.863 124.694 449.863C122.723 449.863 121.125 451.461 121.125 453.432C121.125 455.403 122.723 457.001 124.694 457.001Z" fill="url(#paint20_linear_6_87)"/>
<path opacity="0.25" d="M54.6942 355.998C56.6654 355.998 58.2634 354.4 58.2634 352.429C58.2634 350.458 56.6654 348.86 54.6942 348.86C52.723 348.86 51.1251 350.458 51.1251 352.429C51.1251 354.4 52.723 355.998 54.6942 355.998Z" fill="url(#paint21_linear_6_87)"/>
<path opacity="0.1" d="M36.3599 487.333C38.8239 487.333 40.8213 485.336 40.8213 482.872C40.8213 480.408 38.8239 478.411 36.3599 478.411C33.8959 478.411 31.8984 480.408 31.8984 482.872C31.8984 485.336 33.8959 487.333 36.3599 487.333Z" fill="url(#paint22_linear_6_87)"/>
<path opacity="0.15" d="M358.475 531.955C360.446 531.955 362.044 530.357 362.044 528.386C362.044 526.415 360.446 524.817 358.475 524.817C356.504 524.817 354.906 526.415 354.906 528.386C354.906 530.357 356.504 531.955 358.475 531.955Z" fill="url(#paint23_linear_6_87)"/>
<path opacity="0.1" d="M285.304 435.587C287.275 435.587 288.873 433.989 288.873 432.018C288.873 430.047 287.275 428.449 285.304 428.449C283.333 428.449 281.735 430.047 281.735 432.018C281.735 433.989 283.333 435.587 285.304 435.587Z" fill="url(#paint24_linear_6_87)"/>
<path opacity="0.1" d="M365.304 435.583C367.275 435.583 368.873 433.985 368.873 432.014C368.873 430.043 367.275 428.445 365.304 428.445C363.333 428.445 361.735 430.043 361.735 432.014C361.735 433.985 363.333 435.583 365.304 435.583Z" fill="url(#paint25_linear_6_87)"/>
<path opacity="0.1" d="M305.304 385.583C307.275 385.583 308.873 383.985 308.873 382.014C308.873 380.043 307.275 378.445 305.304 378.445C303.333 378.445 301.735 380.043 301.735 382.014C301.735 383.985 303.333 385.583 305.304 385.583Z" fill="url(#paint26_linear_6_87)"/>
<path opacity="0.1" d="M345.304 335.583C347.275 335.583 348.873 333.985 348.873 332.014C348.873 330.043 347.275 328.445 345.304 328.445C343.333 328.445 341.735 330.043 341.735 332.014C341.735 333.985 343.333 335.583 345.304 335.583Z" fill="url(#paint27_linear_6_87)"/>
<path opacity="0.25" d="M355.304 315.583C357.275 315.583 358.873 313.985 358.873 312.014C358.873 310.043 357.275 308.445 355.304 308.445C353.333 308.445 351.735 310.043 351.735 312.014C351.735 313.985 353.333 315.583 355.304 315.583Z" fill="url(#paint28_linear_6_87)"/>
<path opacity="0.25" d="M324.569 528.38C326.54 528.38 328.138 526.782 328.138 524.811C328.138 522.84 326.54 521.242 324.569 521.242C322.598 521.242 321 522.84 321 524.811C321 526.782 322.598 528.38 324.569 528.38Z" fill="url(#paint29_linear_6_87)"/>
<path opacity="0.1" d="M271.026 564.071C273.983 564.071 276.38 561.674 276.38 558.717C276.38 555.76 273.983 553.363 271.026 553.363C268.069 553.363 265.672 555.76 265.672 558.717C265.672 561.674 268.069 564.071 271.026 564.071Z" fill="url(#paint30_linear_6_87)"/>
<path opacity="0.1" d="M285.304 501.611C287.275 501.611 288.873 500.013 288.873 498.042C288.873 496.071 287.275 494.473 285.304 494.473C283.333 494.473 281.735 496.071 281.735 498.042C281.735 500.013 283.333 501.611 285.304 501.611Z" fill="url(#paint31_linear_6_87)"/>
<path opacity="0.1" d="M304.047 453.43C306.511 453.43 308.508 451.433 308.508 448.969C308.508 446.505 306.511 444.508 304.047 444.508C301.583 444.508 299.586 446.505 299.586 448.969C299.586 451.433 301.583 453.43 304.047 453.43Z" fill="url(#paint32_linear_6_87)"/>
<path opacity="0.1" d="M358.479 383.833C361.436 383.833 363.833 381.436 363.833 378.479C363.833 375.522 361.436 373.125 358.479 373.125C355.522 373.125 353.125 375.522 353.125 378.479C353.125 381.436 355.522 383.833 358.479 383.833Z" fill="url(#paint33_linear_6_87)"/>
<path opacity="0.1" d="M370.971 496.259C373.928 496.259 376.325 493.862 376.325 490.905C376.325 487.948 373.928 485.551 370.971 485.551C368.014 485.551 365.617 487.948 365.617 490.905C365.617 493.862 368.014 496.259 370.971 496.259Z" fill="url(#paint34_linear_6_87)"/>
<path opacity="0.1" d="M163.959 167.136C161.002 167.136 158.605 169.533 158.605 172.49C158.605 175.447 161.002 177.844 163.959 177.844C166.916 177.844 169.313 175.447 169.313 172.49C169.313 169.533 166.916 167.136 163.959 167.136Z" fill="url(#paint35_linear_6_87)"/>
<path opacity="0.1" d="M237.357 252.003C234.4 252.003 232.003 254.4 232.003 257.357C232.003 260.314 234.4 262.711 237.357 262.711C240.314 262.711 242.711 260.314 242.711 257.357C242.711 254.4 240.314 252.003 237.357 252.003Z" fill="url(#paint36_linear_6_87)"/>
<path opacity="0.05" d="M337.06 233.167C334.103 233.167 331.706 235.564 331.706 238.521C331.706 241.478 334.103 243.875 337.06 243.875C340.017 243.875 342.414 241.478 342.414 238.521C342.414 235.564 340.017 233.167 337.06 233.167Z" fill="url(#paint37_linear_6_87)"/>
<path opacity="0.05" d="M120.756 306.335C117.799 306.335 115.402 308.732 115.402 311.689C115.402 314.646 117.799 317.043 120.756 317.043C123.713 317.043 126.11 314.646 126.11 311.689C126.11 308.732 123.713 306.335 120.756 306.335Z" fill="url(#paint38_linear_6_87)"/>
<path opacity="0.05" d="M267.459 279.566C264.502 279.566 262.105 281.963 262.105 284.92C262.105 287.877 264.502 290.274 267.459 290.274C270.416 290.274 272.813 287.877 272.813 284.92C272.813 281.963 270.416 279.566 267.459 279.566Z" fill="url(#paint39_linear_6_87)"/>
<path opacity="0.1" d="M192.506 249.23C189.549 249.23 187.152 251.627 187.152 254.584C187.152 257.541 189.549 259.938 192.506 259.938C195.463 259.938 197.86 257.541 197.86 254.584C197.86 251.627 195.463 249.23 192.506 249.23Z" fill="url(#paint40_linear_6_87)"/>
<path opacity="0.15" d="M214.812 143.937C212.348 143.937 210.351 145.934 210.351 148.398C210.351 150.862 212.348 152.859 214.812 152.859C217.276 152.859 219.273 150.862 219.273 148.398C219.273 145.934 217.276 143.937 214.812 143.937Z" fill="url(#paint41_linear_6_87)"/>
<path opacity="0.1" d="M256.748 161.784C253.791 161.784 251.394 164.181 251.394 167.138C251.394 170.095 253.791 172.492 256.748 172.492C259.705 172.492 262.102 170.095 262.102 167.138C262.102 164.181 259.705 161.784 256.748 161.784Z" fill="url(#paint42_linear_6_87)"/>
<path opacity="0.1" d="M258.532 76.1273C256.561 76.1273 254.963 77.7253 254.963 79.6965C254.963 81.6677 256.561 83.2656 258.532 83.2656C260.503 83.2656 262.101 81.6677 262.101 79.6965C262.101 77.7253 260.503 76.1273 258.532 76.1273Z" fill="url(#paint43_linear_6_87)"/>
<path opacity="0.04" d="M315.65 126.088C313.679 126.088 312.081 127.686 312.081 129.657C312.081 131.628 313.679 133.226 315.65 133.226C317.621 133.226 319.219 131.628 319.219 129.657C319.219 127.686 317.621 126.088 315.65 126.088Z" fill="url(#paint44_linear_6_87)"/>
<path opacity="0.25" d="M345.65 106.092C343.679 106.092 342.081 107.69 342.081 109.661C342.081 111.632 343.679 113.23 345.65 113.23C347.621 113.23 349.219 111.632 349.219 109.661C349.219 107.69 347.621 106.092 345.65 106.092Z" fill="url(#paint45_linear_6_87)"/>
<path opacity="0.05" d="M372.751 44.0023C370.78 44.0023 369.182 45.6003 369.182 47.5715C369.182 49.5427 370.78 51.1406 372.751 51.1406C374.722 51.1406 376.32 49.5427 376.32 47.5715C376.32 45.6003 374.722 44.0023 372.751 44.0023Z" fill="url(#paint46_linear_6_87)"/>
<path opacity="0.1" d="M228.204 104.674C226.233 104.674 224.635 106.272 224.635 108.243C224.635 110.214 226.233 111.812 228.204 111.812C230.175 111.812 231.773 110.214 231.773 108.243C231.773 106.272 230.175 104.674 228.204 104.674Z" fill="url(#paint47_linear_6_87)"/>
<path opacity="0.3" d="M276.384 201.042C274.413 201.042 272.815 202.64 272.815 204.611C272.815 206.582 274.413 208.18 276.384 208.18C278.355 208.18 279.953 206.582 279.953 204.611C279.953 202.64 278.355 201.042 276.384 201.042Z" fill="url(#paint48_linear_6_87)"/>
<path opacity="0.1" d="M364.718 170.71C362.254 170.71 360.257 172.707 360.257 175.171C360.257 177.635 362.254 179.632 364.718 179.632C367.182 179.632 369.179 177.635 369.179 175.171C369.179 172.707 367.182 170.71 364.718 170.71Z" fill="url(#paint49_linear_6_87)"/>
<path opacity="0.25" d="M42.6027 126.088C40.6315 126.088 39.0336 127.686 39.0336 129.657C39.0336 131.628 40.6315 133.226 42.6027 133.226C44.5739 133.226 46.1719 131.628 46.1719 129.657C46.1719 127.686 44.5739 126.088 42.6027 126.088Z" fill="url(#paint50_linear_6_87)"/>
<path opacity="0.1" d="M115.775 222.456C113.804 222.456 112.206 224.054 112.206 226.025C112.206 227.996 113.804 229.594 115.775 229.594C117.746 229.594 119.344 227.996 119.344 226.025C119.344 224.054 117.746 222.456 115.775 222.456Z" fill="url(#paint51_linear_6_87)"/>
<path opacity="0.15" d="M76.509 129.659C74.5378 129.659 72.9398 131.257 72.9398 133.228C72.9398 135.199 74.5378 136.797 76.509 136.797C78.4802 136.797 80.0781 135.199 80.0781 133.228C80.0781 131.257 78.4802 129.659 76.509 129.659Z" fill="url(#paint52_linear_6_87)"/>
<path opacity="0.1" d="M130.053 93.9723C127.096 93.9723 124.699 96.3692 124.699 99.326C124.699 102.283 127.096 104.68 130.053 104.68C133.01 104.68 135.407 102.283 135.407 99.326C135.407 96.3692 133.01 93.9723 130.053 93.9723Z" fill="url(#paint53_linear_6_87)"/>
<path opacity="0.1" d="M115.775 156.432C113.804 156.432 112.206 158.03 112.206 160.001C112.206 161.972 113.804 163.57 115.775 163.57C117.746 163.57 119.344 161.972 119.344 160.001C119.344 158.03 117.746 156.432 115.775 156.432Z" fill="url(#paint54_linear_6_87)"/>
<path opacity="0.1" d="M97.0307 204.609C94.5667 204.609 92.5692 206.606 92.5692 209.07C92.5692 211.534 94.5667 213.531 97.0307 213.531C99.4947 213.531 101.492 211.534 101.492 209.07C101.492 206.606 99.4947 204.609 97.0307 204.609Z" fill="url(#paint55_linear_6_87)"/>
<path opacity="0.1" d="M42.5994 274.206C39.6426 274.206 37.2457 276.603 37.2457 279.56C37.2457 282.517 39.6426 284.914 42.5994 284.914C45.5562 284.914 47.9531 282.517 47.9531 279.56C47.9531 276.603 45.5562 274.206 42.5994 274.206Z" fill="url(#paint56_linear_6_87)"/>
<path opacity="0.1" d="M30.1072 161.784C27.1504 161.784 24.7535 164.181 24.7535 167.138C24.7535 170.095 27.1504 172.492 30.1072 172.492C33.064 172.492 35.4609 170.095 35.4609 167.138C35.4609 164.181 33.064 161.784 30.1072 161.784Z" fill="url(#paint57_linear_6_87)"/>
<path d="M376 697H0V812H376V697Z" fill="url(#paint58_linear_6_87)"/>
<path fill-rule="evenodd" clip-rule="evenodd" d="M183.49 215.835C182.601 214.294 180.377 214.294 179.487 215.835L161.64 246.748C159.722 249.233 158.593 256.787 165.528 263.937C166.153 264.27 166.847 264.555 167.606 264.797L177.036 285.721L188.79 299.906L194.977 292.134L209.701 264.675C210.34 264.036 210.592 263.036 210.197 262.125L210.525 260.086C214.477 255.637 217.574 250.154 216.942 249.059L200.679 220.891C199.79 219.35 197.566 219.35 196.676 220.891L191.543 229.783L183.49 215.835Z" fill="white"/>
<path fill-rule="evenodd" clip-rule="evenodd" d="M191.564 229.779L193.276 225.613C193.276 225.613 195.248 228.587 196.192 230.106C197.076 231.529 197.919 233.422 196.819 235.573C195.912 237.349 194.328 238.041 192.845 238.263C191.902 238.403 186.184 237.312 186.184 238.507C186.184 239.093 187.045 239.368 187.475 239.534C189.149 240.177 190.952 240.455 192.682 240.918C194.687 241.455 196.98 242.233 198.772 243.758C200.663 245.367 201.856 247.683 201.856 250.93C201.856 253.955 200.761 256.884 197.973 258.362C195.79 259.519 192.997 259.671 190.67 259.775C188.129 259.889 186.02 259.949 184.405 260.546C182.849 261.12 182.047 262.322 181.835 263.947C181.603 265.721 182.163 266.817 183.134 267.693C184.828 269.221 187.176 269.884 189.302 270.593C191.529 271.335 194.272 272.038 195.813 273.961C197.136 275.611 197.012 278.13 195.584 279.685C194.944 280.383 194.144 280.779 193.373 281.008C191.794 281.479 190.104 281.386 188.477 281.325C187.048 281.272 185.925 281.23 185.067 281.397C184.726 281.463 184.293 281.54 184.212 281.929C184.039 282.757 186.131 283.366 186.683 283.656C187.391 284.028 188.214 284.464 189.044 284.994C190.72 286.065 192.497 287.561 193.732 289.906C195.298 292.88 194.572 299.251 190.537 291.588C189.312 289.262 187.089 287.946 184.843 286.768C183.503 286.066 181.999 285.341 181.164 284.019C180.638 283.187 180.461 282.225 180.677 281.192C181.066 279.326 182.579 278.201 184.38 277.851C185.672 277.601 187.217 277.662 188.506 277.712C189.76 277.762 191.124 277.911 192.342 277.548C192.879 277.388 193.463 276.803 192.996 276.22C192.011 274.992 189.819 274.575 188.424 274.11C185.725 273.209 182.867 272.315 180.715 270.374C178.92 268.755 177.859 266.504 178.254 263.479C178.638 260.54 180.351 258.193 183.154 257.158C185.426 256.319 188.228 256.27 190.508 256.168C193.002 256.056 194.94 255.882 196.282 255.171C197.862 254.333 198.245 252.599 198.245 250.93C198.245 248.693 197.479 247.4 196.432 246.509C195.285 245.533 193.66 244.919 191.747 244.406C189.098 243.697 185.771 243.473 183.764 241.431C183.018 240.672 182.572 239.686 182.572 238.507C182.572 233.053 188.924 235.196 192.312 234.691C193.069 234.578 193.397 234.334 193.604 233.929C193.796 233.553 193.845 233.17 193.125 232.012C192.13 230.411 191.564 229.779 191.564 229.779Z" fill="url(#paint59_linear_6_87)"/>
<path fill-rule="evenodd" clip-rule="evenodd" d="M180.195 304.652C179.147 302.821 177.139 301.735 175.043 301.969C165.332 303.057 158.594 305.438 158.594 308.201C158.594 311.991 171.269 315.063 186.905 315.063C202.542 315.063 215.217 311.991 215.217 308.201C215.217 305.451 208.538 303.078 198.896 301.984C196.808 301.747 194.807 302.828 193.763 304.652C190.743 309.926 183.215 309.926 180.195 304.652ZM184.162 301.372C183.409 301.389 182.955 302.204 183.329 302.858C184.962 305.71 188.996 305.709 190.629 302.858C191.002 302.206 190.55 301.394 189.799 301.375C188.848 301.352 187.882 301.34 186.905 301.34C185.98 301.34 185.065 301.351 184.162 301.372Z" fill="white"/>
<path fill-rule="evenodd" clip-rule="evenodd" d="M190.536 303.477C199.944 288.216 224.749 245.966 224.749 224.756C224.749 203.869 207.837 186.938 186.976 186.938C166.115 186.938 149.203 203.869 149.203 224.756C149.203 245.683 174.032 288.145 183.43 303.467C185.073 306.147 188.886 306.154 190.536 303.477ZM191.856 289.367C199.973 272.721 215.215 239.367 215.215 223.628C215.215 207.991 202.54 195.316 186.904 195.316C171.268 195.316 158.592 207.991 158.592 223.628C158.592 239.217 173.851 272.673 181.965 289.36C184.007 293.561 189.809 293.565 191.856 289.367Z" fill="white"/>
<path d="M149.168 372.137C146.33 372.137 143.861 371.512 141.761 370.264C139.661 368.986 138.015 367.213 136.823 364.943C135.66 362.644 135.078 359.976 135.078 356.94C135.078 353.875 135.674 351.179 136.866 348.852C138.086 346.496 139.817 344.652 142.059 343.318C144.33 341.984 147.026 341.317 150.147 341.317C153.666 341.317 156.575 342.168 158.874 343.871C161.201 345.546 162.705 347.873 163.386 350.852H156.745C156.32 349.575 155.539 348.582 154.404 347.873C153.297 347.163 151.864 346.808 150.105 346.808C148.175 346.808 146.543 347.22 145.209 348.043C143.876 348.866 142.868 350.044 142.187 351.576C141.506 353.08 141.165 354.882 141.165 356.982C141.165 359.082 141.506 360.87 142.187 362.346C142.897 363.822 143.89 364.943 145.167 365.709C146.472 366.475 148.005 366.858 149.764 366.858C152.318 366.858 154.248 366.177 155.553 364.815C156.887 363.424 157.682 361.665 157.937 359.536H150.743V355.109H163.939V371.626H158.448L157.98 367.965C157.356 368.845 156.632 369.597 155.809 370.221C154.986 370.845 154.021 371.314 152.914 371.626C151.836 371.966 150.587 372.137 149.168 372.137Z" fill="white"/>
<path d="M167.346 371.626V340.977H173.306V371.626H167.346Z" fill="white"/>
<path d="M179.829 380.991L184.98 369.242H183.703L175.104 350.171H181.574L187.662 363.751L192.983 350.171H199.325L186.129 380.991H179.829Z" fill="white"/>
<path d="M208.975 372.137C206.989 372.137 205.272 371.824 203.824 371.2C202.377 370.547 201.242 369.682 200.419 368.603C199.596 367.497 199.114 366.248 198.972 364.857H204.931C205.045 365.368 205.258 365.836 205.57 366.262C205.91 366.659 206.35 366.986 206.889 367.241C207.457 367.497 208.124 367.624 208.89 367.624C209.628 367.624 210.224 367.525 210.678 367.326C211.16 367.099 211.515 366.816 211.742 366.475C211.998 366.134 212.125 365.765 212.125 365.368C212.125 364.801 211.955 364.361 211.614 364.049C211.274 363.736 210.777 363.481 210.125 363.282C209.472 363.084 208.691 362.899 207.783 362.729C206.762 362.502 205.754 362.247 204.761 361.963C203.796 361.679 202.916 361.31 202.122 360.856C201.355 360.374 200.745 359.778 200.291 359.068C199.837 358.359 199.61 357.479 199.61 356.429C199.61 355.152 199.951 354.002 200.632 352.981C201.341 351.959 202.349 351.15 203.654 350.554C204.988 349.958 206.577 349.66 208.422 349.66C211.033 349.66 213.09 350.256 214.594 351.448C216.127 352.612 217.035 354.201 217.319 356.216H211.7C211.558 355.592 211.203 355.109 210.635 354.769C210.068 354.428 209.316 354.258 208.379 354.258C207.414 354.258 206.662 354.428 206.123 354.769C205.612 355.109 205.357 355.563 205.357 356.131C205.357 356.5 205.527 356.84 205.868 357.153C206.208 357.436 206.691 357.692 207.315 357.919C207.968 358.117 208.762 358.316 209.699 358.515C211.373 358.855 212.835 359.253 214.083 359.707C215.332 360.132 216.311 360.757 217.021 361.58C217.73 362.374 218.085 363.538 218.085 365.07C218.113 366.432 217.744 367.653 216.978 368.731C216.24 369.809 215.19 370.647 213.828 371.243C212.466 371.839 210.848 372.137 208.975 372.137Z" fill="white"/>
<path d="M229.915 372.137C227.929 372.137 226.212 371.824 224.764 371.2C223.317 370.547 222.182 369.682 221.359 368.603C220.536 367.497 220.053 366.248 219.912 364.857H225.871C225.985 365.368 226.197 365.836 226.51 366.262C226.85 366.659 227.29 366.986 227.829 367.241C228.397 367.497 229.064 367.624 229.83 367.624C230.568 367.624 231.164 367.525 231.618 367.326C232.1 367.099 232.455 366.816 232.682 366.475C232.937 366.134 233.065 365.765 233.065 365.368C233.065 364.801 232.895 364.361 232.554 364.049C232.214 363.736 231.717 363.481 231.064 363.282C230.412 363.084 229.631 362.899 228.723 362.729C227.702 362.502 226.694 362.247 225.701 361.963C224.736 361.679 223.856 361.31 223.062 360.856C222.295 360.374 221.685 359.778 221.231 359.068C220.777 358.359 220.55 357.479 220.55 356.429C220.55 355.152 220.891 354.002 221.572 352.981C222.281 351.959 223.289 351.15 224.594 350.554C225.928 349.958 227.517 349.66 229.362 349.66C231.973 349.66 234.03 350.256 235.534 351.448C237.067 352.612 237.975 354.201 238.258 356.216H232.639C232.498 355.592 232.143 355.109 231.575 354.769C231.008 354.428 230.256 354.258 229.319 354.258C228.354 354.258 227.602 354.428 227.063 354.769C226.552 355.109 226.297 355.563 226.297 356.131C226.297 356.5 226.467 356.84 226.808 357.153C227.148 357.436 227.631 357.692 228.255 357.919C228.908 358.117 229.702 358.316 230.639 358.515C232.313 358.855 233.775 359.253 235.023 359.707C236.272 360.132 237.251 360.757 237.961 361.58C238.67 362.374 239.025 363.538 239.025 365.07C239.053 366.432 238.684 367.653 237.918 368.731C237.18 369.809 236.13 370.647 234.768 371.243C233.406 371.839 231.788 372.137 229.915 372.137Z" fill="white"/>
<path d="M252.5 799H123.5C122.119 799 121 800.119 121 801.5C121 802.881 122.119 804 123.5 804H252.5C253.881 804 255 802.881 255 801.5C255 800.119 253.881 799 252.5 799Z" fill="white"/>
<path d="M84.8564 439L80.1764 426.4H82.1204L85.9364 437.128L89.7884 426.4H91.6964L87.0164 439H84.8564ZM93.4008 439V429.928H95.2008V439H93.4008ZM94.3188 428.218C93.9708 428.218 93.6828 428.11 93.4548 427.894C93.2388 427.678 93.1308 427.402 93.1308 427.066C93.1308 426.742 93.2388 426.478 93.4548 426.274C93.6828 426.058 93.9708 425.95 94.3188 425.95C94.6548 425.95 94.9368 426.058 95.1648 426.274C95.3928 426.478 95.5068 426.742 95.5068 427.066C95.5068 427.402 95.3928 427.678 95.1648 427.894C94.9368 428.11 94.6548 428.218 94.3188 428.218ZM101.285 439.216C100.517 439.216 99.8448 439.09 99.2688 438.838C98.6928 438.586 98.2368 438.232 97.9008 437.776C97.5648 437.32 97.3608 436.786 97.2888 436.174H99.1248C99.1848 436.462 99.2988 436.726 99.4668 436.966C99.6468 437.206 99.8868 437.398 100.187 437.542C100.499 437.686 100.865 437.758 101.285 437.758C101.681 437.758 102.005 437.704 102.257 437.596C102.521 437.476 102.713 437.32 102.833 437.128C102.953 436.924 103.013 436.708 103.013 436.48C103.013 436.144 102.929 435.892 102.761 435.724C102.605 435.544 102.365 435.406 102.041 435.31C101.729 435.202 101.351 435.106 100.907 435.022C100.487 434.95 100.079 434.854 99.6828 434.734C99.2988 434.602 98.9508 434.44 98.6388 434.248C98.3388 434.056 98.0988 433.816 97.9188 433.528C97.7388 433.228 97.6488 432.862 97.6488 432.43C97.6488 431.914 97.7868 431.452 98.0628 431.044C98.3388 430.624 98.7288 430.3 99.2328 430.072C99.7488 429.832 100.355 429.712 101.051 429.712C102.059 429.712 102.869 429.952 103.481 430.432C104.093 430.912 104.453 431.59 104.561 432.466H102.815C102.767 432.058 102.587 431.746 102.275 431.53C101.963 431.302 101.549 431.188 101.033 431.188C100.517 431.188 100.121 431.29 99.8448 431.494C99.5688 431.698 99.4308 431.968 99.4308 432.304C99.4308 432.52 99.5088 432.712 99.6648 432.88C99.8208 433.048 100.049 433.192 100.349 433.312C100.661 433.42 101.039 433.522 101.483 433.618C102.119 433.738 102.689 433.888 103.193 434.068C103.697 434.248 104.099 434.512 104.399 434.86C104.699 435.208 104.849 435.706 104.849 436.354C104.861 436.918 104.717 437.416 104.417 437.848C104.129 438.28 103.715 438.616 103.175 438.856C102.647 439.096 102.017 439.216 101.285 439.216ZM114.904 439.216C114.196 439.216 113.578 439.072 113.05 438.784C112.534 438.496 112.132 438.064 111.844 437.488C111.568 436.912 111.43 436.186 111.43 435.31V429.928H113.23V435.112C113.23 435.964 113.416 436.606 113.788 437.038C114.16 437.47 114.694 437.686 115.39 437.686C115.858 437.686 116.278 437.572 116.65 437.344C117.034 437.116 117.334 436.786 117.55 436.354C117.766 435.922 117.874 435.394 117.874 434.77V429.928H119.674V439H118.072L117.946 437.452C117.67 438.004 117.268 438.436 116.74 438.748C116.212 439.06 115.6 439.216 114.904 439.216ZM122.138 439V429.928H123.758L123.866 431.476C124.154 430.936 124.562 430.51 125.09 430.198C125.618 429.874 126.224 429.712 126.908 429.712C127.628 429.712 128.246 429.856 128.762 430.144C129.278 430.432 129.68 430.87 129.968 431.458C130.256 432.034 130.4 432.76 130.4 433.636V439H128.6V433.816C128.6 432.976 128.414 432.34 128.042 431.908C127.67 431.476 127.13 431.26 126.422 431.26C125.954 431.26 125.534 431.374 125.162 431.602C124.79 431.818 124.49 432.142 124.262 432.574C124.046 433.006 123.938 433.534 123.938 434.158V439H122.138ZM136.807 439.216C135.943 439.216 135.175 439.018 134.503 438.622C133.831 438.226 133.303 437.674 132.919 436.966C132.547 436.258 132.361 435.436 132.361 434.5C132.361 433.54 132.547 432.706 132.919 431.998C133.303 431.278 133.831 430.72 134.503 430.324C135.175 429.916 135.955 429.712 136.843 429.712C137.731 429.712 138.493 429.91 139.129 430.306C139.765 430.702 140.257 431.23 140.605 431.89C140.953 432.538 141.127 433.258 141.127 434.05C141.127 434.17 141.121 434.302 141.109 434.446C141.109 434.578 141.103 434.728 141.091 434.896H133.675V433.618H139.327C139.291 432.862 139.039 432.274 138.571 431.854C138.103 431.422 137.521 431.206 136.825 431.206C136.333 431.206 135.883 431.32 135.475 431.548C135.067 431.764 134.737 432.088 134.485 432.52C134.245 432.94 134.125 433.474 134.125 434.122V434.626C134.125 435.298 134.245 435.868 134.485 436.336C134.737 436.792 135.067 437.14 135.475 437.38C135.883 437.608 136.327 437.722 136.807 437.722C137.383 437.722 137.857 437.596 138.229 437.344C138.601 437.092 138.877 436.75 139.057 436.318H140.857C140.701 436.87 140.437 437.368 140.065 437.812C139.693 438.244 139.231 438.586 138.679 438.838C138.139 439.09 137.515 439.216 136.807 439.216ZM151.836 439.216C150.972 439.216 150.204 439.018 149.532 438.622C148.86 438.226 148.332 437.674 147.948 436.966C147.576 436.258 147.39 435.436 147.39 434.5C147.39 433.54 147.576 432.706 147.948 431.998C148.332 431.278 148.86 430.72 149.532 430.324C150.204 429.916 150.984 429.712 151.872 429.712C152.76 429.712 153.522 429.91 154.158 430.306C154.794 430.702 155.286 431.23 155.634 431.89C155.982 432.538 156.156 433.258 156.156 434.05C156.156 434.17 156.15 434.302 156.138 434.446C156.138 434.578 156.132 434.728 156.12 434.896H148.704V433.618H154.356C154.32 432.862 154.068 432.274 153.6 431.854C153.132 431.422 152.55 431.206 151.854 431.206C151.362 431.206 150.912 431.32 150.504 431.548C150.096 431.764 149.766 432.088 149.514 432.52C149.274 432.94 149.154 433.474 149.154 434.122V434.626C149.154 435.298 149.274 435.868 149.514 436.336C149.766 436.792 150.096 437.14 150.504 437.38C150.912 437.608 151.356 437.722 151.836 437.722C152.412 437.722 152.886 437.596 153.258 437.344C153.63 437.092 153.906 436.75 154.086 436.318H155.886C155.73 436.87 155.466 437.368 155.094 437.812C154.722 438.244 154.26 438.586 153.708 438.838C153.168 439.09 152.544 439.216 151.836 439.216ZM156.799 439L159.931 434.464L156.799 429.928H158.743L161.119 433.456L163.513 429.928H165.439L162.307 434.464L165.439 439H163.513L161.119 435.454L158.743 439H156.799ZM167.015 442.96V429.928H168.635L168.815 431.332C169.007 431.056 169.247 430.798 169.535 430.558C169.823 430.306 170.165 430.102 170.561 429.946C170.969 429.79 171.443 429.712 171.983 429.712C172.847 429.712 173.603 429.922 174.251 430.342C174.911 430.762 175.421 431.332 175.781 432.052C176.153 432.76 176.339 433.57 176.339 434.482C176.339 435.394 176.153 436.21 175.781 436.93C175.409 437.638 174.893 438.196 174.233 438.604C173.585 439.012 172.829 439.216 171.965 439.216C171.257 439.216 170.633 439.078 170.093 438.802C169.553 438.514 169.127 438.118 168.815 437.614V442.96H167.015ZM171.677 437.65C172.229 437.65 172.715 437.518 173.135 437.254C173.567 436.99 173.903 436.618 174.143 436.138C174.395 435.658 174.521 435.1 174.521 434.464C174.521 433.828 174.395 433.276 174.143 432.808C173.903 432.328 173.567 431.956 173.135 431.692C172.715 431.416 172.229 431.278 171.677 431.278C171.113 431.278 170.615 431.416 170.183 431.692C169.763 431.956 169.433 432.328 169.193 432.808C168.953 433.276 168.833 433.828 168.833 434.464C168.833 435.1 168.953 435.658 169.193 436.138C169.433 436.618 169.763 436.99 170.183 437.254C170.615 437.518 171.113 437.65 171.677 437.65ZM182.545 439.216C181.681 439.216 180.913 439.018 180.241 438.622C179.569 438.226 179.041 437.674 178.657 436.966C178.285 436.258 178.099 435.436 178.099 434.5C178.099 433.54 178.285 432.706 178.657 431.998C179.041 431.278 179.569 430.72 180.241 430.324C180.913 429.916 181.693 429.712 182.581 429.712C183.469 429.712 184.231 429.91 184.867 430.306C185.503 430.702 185.995 431.23 186.343 431.89C186.691 432.538 186.865 433.258 186.865 434.05C186.865 434.17 186.859 434.302 186.847 434.446C186.847 434.578 186.841 434.728 186.829 434.896H179.413V433.618H185.065C185.029 432.862 184.777 432.274 184.309 431.854C183.841 431.422 183.259 431.206 182.563 431.206C182.071 431.206 181.621 431.32 181.213 431.548C180.805 431.764 180.475 432.088 180.223 432.52C179.983 432.94 179.863 433.474 179.863 434.122V434.626C179.863 435.298 179.983 435.868 180.223 436.336C180.475 436.792 180.805 437.14 181.213 437.38C181.621 437.608 182.065 437.722 182.545 437.722C183.121 437.722 183.595 437.596 183.967 437.344C184.339 437.092 184.615 436.75 184.795 436.318H186.595C186.439 436.87 186.175 437.368 185.803 437.812C185.431 438.244 184.969 438.586 184.417 438.838C183.877 439.09 183.253 439.216 182.545 439.216ZM180.709 429.154L180.529 427.912L184.255 425.626L184.489 427.102L180.709 429.154ZM188.865 439V429.928H190.485L190.647 431.638C190.851 431.23 191.115 430.888 191.439 430.612C191.763 430.324 192.141 430.102 192.573 429.946C193.017 429.79 193.521 429.712 194.085 429.712V431.62H193.437C193.065 431.62 192.711 431.668 192.375 431.764C192.039 431.848 191.739 431.998 191.475 432.214C191.223 432.43 191.025 432.724 190.881 433.096C190.737 433.468 190.665 433.93 190.665 434.482V439H188.865ZM195.864 439V429.928H197.664V439H195.864ZM196.782 428.218C196.434 428.218 196.146 428.11 195.918 427.894C195.702 427.678 195.594 427.402 195.594 427.066C195.594 426.742 195.702 426.478 195.918 426.274C196.146 426.058 196.434 425.95 196.782 425.95C197.118 425.95 197.4 426.058 197.628 426.274C197.856 426.478 197.97 426.742 197.97 427.066C197.97 427.402 197.856 427.678 197.628 427.894C197.4 428.11 197.118 428.218 196.782 428.218ZM204.342 439.216C203.478 439.216 202.71 439.018 202.038 438.622C201.366 438.226 200.838 437.674 200.454 436.966C200.082 436.258 199.896 435.436 199.896 434.5C199.896 433.54 200.082 432.706 200.454 431.998C200.838 431.278 201.366 430.72 202.038 430.324C202.71 429.916 203.49 429.712 204.378 429.712C205.266 429.712 206.028 429.91 206.664 430.306C207.3 430.702 207.792 431.23 208.14 431.89C208.488 432.538 208.662 433.258 208.662 434.05C208.662 434.17 208.656 434.302 208.644 434.446C208.644 434.578 208.638 434.728 208.626 434.896H201.21V433.618H206.862C206.826 432.862 206.574 432.274 206.106 431.854C205.638 431.422 205.056 431.206 204.36 431.206C203.868 431.206 203.418 431.32 203.01 431.548C202.602 431.764 202.272 432.088 202.02 432.52C201.78 432.94 201.66 433.474 201.66 434.122V434.626C201.66 435.298 201.78 435.868 202.02 436.336C202.272 436.792 202.602 437.14 203.01 437.38C203.418 437.608 203.862 437.722 204.342 437.722C204.918 437.722 205.392 437.596 205.764 437.344C206.136 437.092 206.412 436.75 206.592 436.318H208.392C208.236 436.87 207.972 437.368 207.6 437.812C207.228 438.244 206.766 438.586 206.214 438.838C205.674 439.09 205.05 439.216 204.342 439.216ZM210.662 439V429.928H212.282L212.39 431.476C212.678 430.936 213.086 430.51 213.614 430.198C214.142 429.874 214.748 429.712 215.432 429.712C216.152 429.712 216.77 429.856 217.286 430.144C217.802 430.432 218.204 430.87 218.492 431.458C218.78 432.034 218.924 432.76 218.924 433.636V439H217.124V433.816C217.124 432.976 216.938 432.34 216.566 431.908C216.194 431.476 215.654 431.26 214.946 431.26C214.478 431.26 214.058 431.374 213.686 431.602C213.314 431.818 213.014 432.142 212.786 432.574C212.57 433.006 212.462 433.534 212.462 434.158V439H210.662ZM225.42 439.216C224.544 439.216 223.764 439.018 223.08 438.622C222.396 438.214 221.856 437.656 221.46 436.948C221.076 436.24 220.884 435.418 220.884 434.482C220.884 433.534 221.076 432.706 221.46 431.998C221.856 431.278 222.396 430.72 223.08 430.324C223.764 429.916 224.544 429.712 225.42 429.712C226.524 429.712 227.448 430 228.192 430.576C228.936 431.152 229.41 431.932 229.614 432.916H227.742C227.622 432.388 227.346 431.98 226.914 431.692C226.494 431.404 225.99 431.26 225.402 431.26C224.922 431.26 224.478 431.386 224.07 431.638C223.662 431.878 223.332 432.238 223.08 432.718C222.84 433.186 222.72 433.768 222.72 434.464C222.72 434.98 222.792 435.442 222.936 435.85C223.08 436.246 223.272 436.582 223.512 436.858C223.764 437.134 224.052 437.344 224.376 437.488C224.7 437.62 225.042 437.686 225.402 437.686C225.798 437.686 226.152 437.626 226.464 437.506C226.788 437.374 227.058 437.182 227.274 436.93C227.502 436.678 227.658 436.378 227.742 436.03H229.614C229.41 436.99 228.936 437.764 228.192 438.352C227.448 438.928 226.524 439.216 225.42 439.216ZM235.824 439.216C234.96 439.216 234.192 439.018 233.52 438.622C232.848 438.226 232.32 437.674 231.936 436.966C231.564 436.258 231.378 435.436 231.378 434.5C231.378 433.54 231.564 432.706 231.936 431.998C232.32 431.278 232.848 430.72 233.52 430.324C234.192 429.916 234.972 429.712 235.86 429.712C236.748 429.712 237.51 429.91 238.146 430.306C238.782 430.702 239.274 431.23 239.622 431.89C239.97 432.538 240.144 433.258 240.144 434.05C240.144 434.17 240.138 434.302 240.126 434.446C240.126 434.578 240.12 434.728 240.108 434.896H232.692V433.618H238.344C238.308 432.862 238.056 432.274 237.588 431.854C237.12 431.422 236.538 431.206 235.842 431.206C235.35 431.206 234.9 431.32 234.492 431.548C234.084 431.764 233.754 432.088 233.502 432.52C233.262 432.94 233.142 433.474 233.142 434.122V434.626C233.142 435.298 233.262 435.868 233.502 436.336C233.754 436.792 234.084 437.14 234.492 437.38C234.9 437.608 235.344 437.722 235.824 437.722C236.4 437.722 236.874 437.596 237.246 437.344C237.618 437.092 237.894 436.75 238.074 436.318H239.874C239.718 436.87 239.454 437.368 239.082 437.812C238.71 438.244 238.248 438.586 237.696 438.838C237.156 439.09 236.532 439.216 235.824 439.216ZM250.781 439.216C249.917 439.216 249.155 439.012 248.495 438.604C247.835 438.184 247.319 437.62 246.947 436.912C246.587 436.192 246.407 435.376 246.407 434.464C246.407 433.54 246.587 432.724 246.947 432.016C247.319 431.308 247.835 430.75 248.495 430.342C249.167 429.922 249.935 429.712 250.799 429.712C251.507 429.712 252.131 429.856 252.671 430.144C253.211 430.42 253.631 430.816 253.931 431.332V426.04H255.731V439H254.129L253.931 437.596C253.751 437.872 253.517 438.136 253.229 438.388C252.941 438.628 252.593 438.826 252.185 438.982C251.777 439.138 251.309 439.216 250.781 439.216ZM251.069 437.65C251.633 437.65 252.131 437.518 252.563 437.254C252.995 436.99 253.325 436.618 253.553 436.138C253.793 435.658 253.913 435.1 253.913 434.464C253.913 433.828 253.793 433.276 253.553 432.808C253.325 432.328 252.995 431.956 252.563 431.692C252.131 431.416 251.633 431.278 251.069 431.278C250.529 431.278 250.043 431.416 249.611 431.692C249.179 431.956 248.843 432.328 248.603 432.808C248.363 433.276 248.243 433.828 248.243 434.464C248.243 435.1 248.363 435.658 248.603 436.138C248.843 436.618 249.179 436.99 249.611 437.254C250.043 437.518 250.529 437.65 251.069 437.65ZM262.297 439.216C261.433 439.216 260.665 439.018 259.993 438.622C259.321 438.226 258.793 437.674 258.409 436.966C258.037 436.258 257.851 435.436 257.851 434.5C257.851 433.54 258.037 432.706 258.409 431.998C258.793 431.278 259.321 430.72 259.993 430.324C260.665 429.916 261.445 429.712 262.333 429.712C263.221 429.712 263.983 429.91 264.619 430.306C265.255 430.702 265.747 431.23 266.095 431.89C266.443 432.538 266.617 433.258 266.617 434.05C266.617 434.17 266.611 434.302 266.599 434.446C266.599 434.578 266.593 434.728 266.581 434.896H259.165V433.618H264.817C264.781 432.862 264.529 432.274 264.061 431.854C263.593 431.422 263.011 431.206 262.315 431.206C261.823 431.206 261.373 431.32 260.965 431.548C260.557 431.764 260.227 432.088 259.975 432.52C259.735 432.94 259.615 433.474 259.615 434.122V434.626C259.615 435.298 259.735 435.868 259.975 436.336C260.227 436.792 260.557 437.14 260.965 437.38C261.373 437.608 261.817 437.722 262.297 437.722C262.873 437.722 263.347 437.596 263.719 437.344C264.091 437.092 264.367 436.75 264.547 436.318H266.347C266.191 436.87 265.927 437.368 265.555 437.812C265.183 438.244 264.721 438.586 264.169 438.838C263.629 439.09 263.005 439.216 262.297 439.216ZM276.732 439.216C275.964 439.216 275.292 439.09 274.716 438.838C274.14 438.586 273.684 438.232 273.348 437.776C273.012 437.32 272.808 436.786 272.736 436.174H274.572C274.632 436.462 274.746 436.726 274.914 436.966C275.094 437.206 275.334 437.398 275.634 437.542C275.946 437.686 276.312 437.758 276.732 437.758C277.128 437.758 277.452 437.704 277.704 437.596C277.968 437.476 278.16 437.32 278.28 437.128C278.4 436.924 278.46 436.708 278.46 436.48C278.46 436.144 278.376 435.892 278.208 435.724C278.052 435.544 277.812 435.406 277.488 435.31C277.176 435.202 276.798 435.106 276.354 435.022C275.934 434.95 275.526 434.854 275.13 434.734C274.746 434.602 274.398 434.44 274.086 434.248C273.786 434.056 273.546 433.816 273.366 433.528C273.186 433.228 273.096 432.862 273.096 432.43C273.096 431.914 273.234 431.452 273.51 431.044C273.786 430.624 274.176 430.3 274.68 430.072C275.196 429.832 275.802 429.712 276.498 429.712C277.506 429.712 278.316 429.952 278.928 430.432C279.54 430.912 279.9 431.59 280.008 432.466H278.262C278.214 432.058 278.034 431.746 277.722 431.53C277.41 431.302 276.996 431.188 276.48 431.188C275.964 431.188 275.568 431.29 275.292 431.494C275.016 431.698 274.878 431.968 274.878 432.304C274.878 432.52 274.956 432.712 275.112 432.88C275.268 433.048 275.496 433.192 275.796 433.312C276.108 433.42 276.486 433.522 276.93 433.618C277.566 433.738 278.136 433.888 278.64 434.068C279.144 434.248 279.546 434.512 279.846 434.86C280.146 435.208 280.296 435.706 280.296 436.354C280.308 436.918 280.164 437.416 279.864 437.848C279.576 438.28 279.162 438.616 278.622 438.856C278.094 439.096 277.464 439.216 276.732 439.216ZM288.121 439L283.945 434.032L287.725 429.928H289.903L285.403 434.734V433.384L290.389 439H288.121ZM282.415 439V426.04H284.215V439H282.415ZM292.034 439V429.928H293.834V439H292.034ZM292.952 428.218C292.604 428.218 292.316 428.11 292.088 427.894C291.872 427.678 291.764 427.402 291.764 427.066C291.764 426.742 291.872 426.478 292.088 426.274C292.316 426.058 292.604 425.95 292.952 425.95C293.288 425.95 293.57 426.058 293.798 426.274C294.026 426.478 294.14 426.742 294.14 427.066C294.14 427.402 294.026 427.678 293.798 427.894C293.57 428.11 293.288 428.218 292.952 428.218ZM83.9528 462.216C83.1848 462.216 82.5128 462.09 81.9368 461.838C81.3608 461.586 80.9048 461.232 80.5688 460.776C80.2328 460.32 80.0288 459.786 79.9568 459.174H81.7928C81.8528 459.462 81.9668 459.726 82.1348 459.966C82.3148 460.206 82.5548 460.398 82.8548 460.542C83.1668 460.686 83.5328 460.758 83.9528 460.758C84.3488 460.758 84.6728 460.704 84.9248 460.596C85.1888 460.476 85.3808 460.32 85.5008 460.128C85.6208 459.924 85.6808 459.708 85.6808 459.48C85.6808 459.144 85.5968 458.892 85.4288 458.724C85.2728 458.544 85.0328 458.406 84.7088 458.31C84.3968 458.202 84.0188 458.106 83.5748 458.022C83.1548 457.95 82.7468 457.854 82.3508 457.734C81.9668 457.602 81.6188 457.44 81.3068 457.248C81.0068 457.056 80.7668 456.816 80.5868 456.528C80.4068 456.228 80.3168 455.862 80.3168 455.43C80.3168 454.914 80.4548 454.452 80.7308 454.044C81.0068 453.624 81.3968 453.3 81.9008 453.072C82.4168 452.832 83.0228 452.712 83.7188 452.712C84.7268 452.712 85.5368 452.952 86.1488 453.432C86.7608 453.912 87.1208 454.59 87.2288 455.466H85.4828C85.4348 455.058 85.2548 454.746 84.9428 454.53C84.6308 454.302 84.2168 454.188 83.7008 454.188C83.1848 454.188 82.7888 454.29 82.5128 454.494C82.2368 454.698 82.0988 454.968 82.0988 455.304C82.0988 455.52 82.1768 455.712 82.3328 455.88C82.4888 456.048 82.7168 456.192 83.0168 456.312C83.3288 456.42 83.7068 456.522 84.1508 456.618C84.7868 456.738 85.3568 456.888 85.8608 457.068C86.3648 457.248 86.7668 457.512 87.0668 457.86C87.3668 458.208 87.5168 458.706 87.5168 459.354C87.5288 459.918 87.3848 460.416 87.0848 460.848C86.7968 461.28 86.3828 461.616 85.8428 461.856C85.3148 462.096 84.6848 462.216 83.9528 462.216ZM92.6421 462.216C91.8981 462.216 91.2801 462.09 90.7881 461.838C90.2961 461.586 89.9301 461.25 89.6901 460.83C89.4501 460.398 89.3301 459.936 89.3301 459.444C89.3301 458.844 89.4861 458.334 89.7981 457.914C90.1101 457.482 90.5541 457.152 91.1301 456.924C91.7061 456.696 92.3961 456.582 93.2001 456.582H95.5581C95.5581 456.054 95.4801 455.616 95.3241 455.268C95.1681 454.92 94.9341 454.662 94.6221 454.494C94.3221 454.314 93.9381 454.224 93.4701 454.224C92.9301 454.224 92.4681 454.356 92.0841 454.62C91.7001 454.872 91.4601 455.25 91.3641 455.754H89.5641C89.6361 455.118 89.8521 454.578 90.2121 454.134C90.5841 453.678 91.0581 453.33 91.6341 453.09C92.2101 452.838 92.8221 452.712 93.4701 452.712C94.3221 452.712 95.0361 452.862 95.6121 453.162C96.1881 453.462 96.6201 453.888 96.9081 454.44C97.2081 454.98 97.3581 455.628 97.3581 456.384V462H95.7921L95.6481 460.47C95.5161 460.71 95.3601 460.938 95.1801 461.154C95.0001 461.37 94.7841 461.556 94.5321 461.712C94.2921 461.868 94.0101 461.988 93.6861 462.072C93.3741 462.168 93.0261 462.216 92.6421 462.216ZM92.9841 460.758C93.3681 460.758 93.7161 460.68 94.0281 460.524C94.3401 460.368 94.6041 460.158 94.8201 459.894C95.0481 459.618 95.2161 459.312 95.3241 458.976C95.4441 458.628 95.5101 458.274 95.5221 457.914V457.86H93.3801C92.8641 457.86 92.4441 457.926 92.1201 458.058C91.8081 458.178 91.5801 458.346 91.4361 458.562C91.2921 458.778 91.2201 459.03 91.2201 459.318C91.2201 459.618 91.2861 459.876 91.4181 460.092C91.5621 460.296 91.7661 460.458 92.0301 460.578C92.2941 460.698 92.6121 460.758 92.9841 460.758ZM99.6556 462V452.928H101.276L101.384 454.476C101.672 453.936 102.08 453.51 102.608 453.198C103.136 452.874 103.742 452.712 104.426 452.712C105.146 452.712 105.764 452.856 106.28 453.144C106.796 453.432 107.198 453.87 107.486 454.458C107.774 455.034 107.918 455.76 107.918 456.636V462H106.118V456.816C106.118 455.976 105.932 455.34 105.56 454.908C105.188 454.476 104.648 454.26 103.94 454.26C103.472 454.26 103.052 454.374 102.68 454.602C102.308 454.818 102.008 455.142 101.78 455.574C101.564 456.006 101.456 456.534 101.456 457.158V462H99.6556ZM113.73 462.216C112.962 462.216 112.29 462.09 111.714 461.838C111.138 461.586 110.682 461.232 110.346 460.776C110.01 460.32 109.806 459.786 109.734 459.174H111.57C111.63 459.462 111.744 459.726 111.912 459.966C112.092 460.206 112.332 460.398 112.632 460.542C112.944 460.686 113.31 460.758 113.73 460.758C114.126 460.758 114.45 460.704 114.702 460.596C114.966 460.476 115.158 460.32 115.278 460.128C115.398 459.924 115.458 459.708 115.458 459.48C115.458 459.144 115.374 458.892 115.206 458.724C115.05 458.544 114.81 458.406 114.486 458.31C114.174 458.202 113.796 458.106 113.352 458.022C112.932 457.95 112.524 457.854 112.128 457.734C111.744 457.602 111.396 457.44 111.084 457.248C110.784 457.056 110.544 456.816 110.364 456.528C110.184 456.228 110.094 455.862 110.094 455.43C110.094 454.914 110.232 454.452 110.508 454.044C110.784 453.624 111.174 453.3 111.678 453.072C112.194 452.832 112.8 452.712 113.496 452.712C114.504 452.712 115.314 452.952 115.926 453.432C116.538 453.912 116.898 454.59 117.006 455.466H115.26C115.212 455.058 115.032 454.746 114.72 454.53C114.408 454.302 113.994 454.188 113.478 454.188C112.962 454.188 112.566 454.29 112.29 454.494C112.014 454.698 111.876 454.968 111.876 455.304C111.876 455.52 111.954 455.712 112.11 455.88C112.266 456.048 112.494 456.192 112.794 456.312C113.106 456.42 113.484 456.522 113.928 456.618C114.564 456.738 115.134 456.888 115.638 457.068C116.142 457.248 116.544 457.512 116.844 457.86C117.144 458.208 117.294 458.706 117.294 459.354C117.306 459.918 117.162 460.416 116.862 460.848C116.574 461.28 116.16 461.616 115.62 461.856C115.092 462.096 114.462 462.216 113.73 462.216ZM127.529 462.216C126.761 462.216 126.089 462.09 125.513 461.838C124.937 461.586 124.481 461.232 124.145 460.776C123.809 460.32 123.605 459.786 123.533 459.174H125.369C125.429 459.462 125.543 459.726 125.711 459.966C125.891 460.206 126.131 460.398 126.431 460.542C126.743 460.686 127.109 460.758 127.529 460.758C127.925 460.758 128.249 460.704 128.501 460.596C128.765 460.476 128.957 460.32 129.077 460.128C129.197 459.924 129.257 459.708 129.257 459.48C129.257 459.144 129.173 458.892 129.005 458.724C128.849 458.544 128.609 458.406 128.285 458.31C127.973 458.202 127.595 458.106 127.151 458.022C126.731 457.95 126.323 457.854 125.927 457.734C125.543 457.602 125.195 457.44 124.883 457.248C124.583 457.056 124.343 456.816 124.163 456.528C123.983 456.228 123.893 455.862 123.893 455.43C123.893 454.914 124.031 454.452 124.307 454.044C124.583 453.624 124.973 453.3 125.477 453.072C125.993 452.832 126.599 452.712 127.295 452.712C128.303 452.712 129.113 452.952 129.725 453.432C130.337 453.912 130.697 454.59 130.805 455.466H129.059C129.011 455.058 128.831 454.746 128.519 454.53C128.207 454.302 127.793 454.188 127.277 454.188C126.761 454.188 126.365 454.29 126.089 454.494C125.813 454.698 125.675 454.968 125.675 455.304C125.675 455.52 125.753 455.712 125.909 455.88C126.065 456.048 126.293 456.192 126.593 456.312C126.905 456.42 127.283 456.522 127.727 456.618C128.363 456.738 128.933 456.888 129.437 457.068C129.941 457.248 130.343 457.512 130.643 457.86C130.943 458.208 131.093 458.706 131.093 459.354C131.105 459.918 130.961 460.416 130.661 460.848C130.373 461.28 129.959 461.616 129.419 461.856C128.891 462.096 128.261 462.216 127.529 462.216ZM136.587 462C136.023 462 135.531 461.91 135.111 461.73C134.691 461.55 134.367 461.25 134.139 460.83C133.911 460.41 133.797 459.84 133.797 459.12V454.458H132.231V452.928H133.797L134.013 450.66H135.597V452.928H138.171V454.458H135.597V459.138C135.597 459.654 135.705 460.008 135.921 460.2C136.137 460.38 136.509 460.47 137.037 460.47H138.081V462H136.587ZM140.156 462V452.928H141.776L141.938 454.638C142.142 454.23 142.406 453.888 142.73 453.612C143.054 453.324 143.432 453.102 143.864 452.946C144.308 452.79 144.812 452.712 145.376 452.712V454.62H144.728C144.356 454.62 144.002 454.668 143.666 454.764C143.33 454.848 143.03 454.998 142.766 455.214C142.514 455.43 142.316 455.724 142.172 456.096C142.028 456.468 141.956 456.93 141.956 457.482V462H140.156ZM150.851 462.216C149.987 462.216 149.219 462.018 148.547 461.622C147.875 461.226 147.347 460.674 146.963 459.966C146.591 459.258 146.405 458.436 146.405 457.5C146.405 456.54 146.591 455.706 146.963 454.998C147.347 454.278 147.875 453.72 148.547 453.324C149.219 452.916 149.999 452.712 150.887 452.712C151.775 452.712 152.537 452.91 153.173 453.306C153.809 453.702 154.301 454.23 154.649 454.89C154.997 455.538 155.171 456.258 155.171 457.05C155.171 457.17 155.165 457.302 155.153 457.446C155.153 457.578 155.147 457.728 155.135 457.896H147.719V456.618H153.371C153.335 455.862 153.083 455.274 152.615 454.854C152.147 454.422 151.565 454.206 150.869 454.206C150.377 454.206 149.927 454.32 149.519 454.548C149.111 454.764 148.781 455.088 148.529 455.52C148.289 455.94 148.169 456.474 148.169 457.122V457.626C148.169 458.298 148.289 458.868 148.529 459.336C148.781 459.792 149.111 460.14 149.519 460.38C149.927 460.608 150.371 460.722 150.851 460.722C151.427 460.722 151.901 460.596 152.273 460.344C152.645 460.092 152.921 459.75 153.101 459.318H154.901C154.745 459.87 154.481 460.368 154.109 460.812C153.737 461.244 153.275 461.586 152.723 461.838C152.183 462.09 151.559 462.216 150.851 462.216ZM160.681 462.216C159.913 462.216 159.241 462.09 158.665 461.838C158.089 461.586 157.633 461.232 157.297 460.776C156.961 460.32 156.757 459.786 156.685 459.174H158.521C158.581 459.462 158.695 459.726 158.863 459.966C159.043 460.206 159.283 460.398 159.583 460.542C159.895 460.686 160.261 460.758 160.681 460.758C161.077 460.758 161.401 460.704 161.653 460.596C161.917 460.476 162.109 460.32 162.229 460.128C162.349 459.924 162.409 459.708 162.409 459.48C162.409 459.144 162.325 458.892 162.157 458.724C162.001 458.544 161.761 458.406 161.437 458.31C161.125 458.202 160.747 458.106 160.303 458.022C159.883 457.95 159.475 457.854 159.079 457.734C158.695 457.602 158.347 457.44 158.035 457.248C157.735 457.056 157.495 456.816 157.315 456.528C157.135 456.228 157.045 455.862 157.045 455.43C157.045 454.914 157.183 454.452 157.459 454.044C157.735 453.624 158.125 453.3 158.629 453.072C159.145 452.832 159.751 452.712 160.447 452.712C161.455 452.712 162.265 452.952 162.877 453.432C163.489 453.912 163.849 454.59 163.957 455.466H162.211C162.163 455.058 161.983 454.746 161.671 454.53C161.359 454.302 160.945 454.188 160.429 454.188C159.913 454.188 159.517 454.29 159.241 454.494C158.965 454.698 158.827 454.968 158.827 455.304C158.827 455.52 158.905 455.712 159.061 455.88C159.217 456.048 159.445 456.192 159.745 456.312C160.057 456.42 160.435 456.522 160.879 456.618C161.515 456.738 162.085 456.888 162.589 457.068C163.093 457.248 163.495 457.512 163.795 457.86C164.095 458.208 164.245 458.706 164.245 459.354C164.257 459.918 164.113 460.416 163.813 460.848C163.525 461.28 163.111 461.616 162.571 461.856C162.043 462.096 161.413 462.216 160.681 462.216ZM169.875 462.216C169.107 462.216 168.435 462.09 167.859 461.838C167.283 461.586 166.827 461.232 166.491 460.776C166.155 460.32 165.951 459.786 165.879 459.174H167.715C167.775 459.462 167.889 459.726 168.057 459.966C168.237 460.206 168.477 460.398 168.777 460.542C169.089 460.686 169.455 460.758 169.875 460.758C170.271 460.758 170.595 460.704 170.847 460.596C171.111 460.476 171.303 460.32 171.423 460.128C171.543 459.924 171.603 459.708 171.603 459.48C171.603 459.144 171.519 458.892 171.351 458.724C171.195 458.544 170.955 458.406 170.631 458.31C170.319 458.202 169.941 458.106 169.497 458.022C169.077 457.95 168.669 457.854 168.273 457.734C167.889 457.602 167.541 457.44 167.229 457.248C166.929 457.056 166.689 456.816 166.509 456.528C166.329 456.228 166.239 455.862 166.239 455.43C166.239 454.914 166.377 454.452 166.653 454.044C166.929 453.624 167.319 453.3 167.823 453.072C168.339 452.832 168.945 452.712 169.641 452.712C170.649 452.712 171.459 452.952 172.071 453.432C172.683 453.912 173.043 454.59 173.151 455.466H171.405C171.357 455.058 171.177 454.746 170.865 454.53C170.553 454.302 170.139 454.188 169.623 454.188C169.107 454.188 168.711 454.29 168.435 454.494C168.159 454.698 168.021 454.968 168.021 455.304C168.021 455.52 168.099 455.712 168.255 455.88C168.411 456.048 168.639 456.192 168.939 456.312C169.251 456.42 169.629 456.522 170.073 456.618C170.709 456.738 171.279 456.888 171.783 457.068C172.287 457.248 172.689 457.512 172.989 457.86C173.289 458.208 173.439 458.706 173.439 459.354C173.451 459.918 173.307 460.416 173.007 460.848C172.719 461.28 172.305 461.616 171.765 461.856C171.237 462.096 170.607 462.216 169.875 462.216ZM184.267 462.216C183.403 462.216 182.635 462.018 181.963 461.622C181.291 461.226 180.763 460.674 180.379 459.966C180.007 459.258 179.821 458.436 179.821 457.5C179.821 456.54 180.007 455.706 180.379 454.998C180.763 454.278 181.291 453.72 181.963 453.324C182.635 452.916 183.415 452.712 184.303 452.712C185.191 452.712 185.953 452.91 186.589 453.306C187.225 453.702 187.717 454.23 188.065 454.89C188.413 455.538 188.587 456.258 188.587 457.05C188.587 457.17 188.581 457.302 188.569 457.446C188.569 457.578 188.563 457.728 188.551 457.896H181.135V456.618H186.787C186.751 455.862 186.499 455.274 186.031 454.854C185.563 454.422 184.981 454.206 184.285 454.206C183.793 454.206 183.343 454.32 182.935 454.548C182.527 454.764 182.197 455.088 181.945 455.52C181.705 455.94 181.585 456.474 181.585 457.122V457.626C181.585 458.298 181.705 458.868 181.945 459.336C182.197 459.792 182.527 460.14 182.935 460.38C183.343 460.608 183.787 460.722 184.267 460.722C184.843 460.722 185.317 460.596 185.689 460.344C186.061 460.092 186.337 459.75 186.517 459.318H188.317C188.161 459.87 187.897 460.368 187.525 460.812C187.153 461.244 186.691 461.586 186.139 461.838C185.599 462.09 184.975 462.216 184.267 462.216ZM194.067 462C193.503 462 193.011 461.91 192.591 461.73C192.171 461.55 191.847 461.25 191.619 460.83C191.391 460.41 191.277 459.84 191.277 459.12V454.458H189.711V452.928H191.277L191.493 450.66H193.077V452.928H195.651V454.458H193.077V459.138C193.077 459.654 193.185 460.008 193.401 460.2C193.617 460.38 193.989 460.47 194.517 460.47H195.561V462H194.067ZM205.752 462.216C204.984 462.216 204.312 462.09 203.736 461.838C203.16 461.586 202.704 461.232 202.368 460.776C202.032 460.32 201.828 459.786 201.756 459.174H203.592C203.652 459.462 203.766 459.726 203.934 459.966C204.114 460.206 204.354 460.398 204.654 460.542C204.966 460.686 205.332 460.758 205.752 460.758C206.148 460.758 206.472 460.704 206.724 460.596C206.988 460.476 207.18 460.32 207.3 460.128C207.42 459.924 207.48 459.708 207.48 459.48C207.48 459.144 207.396 458.892 207.228 458.724C207.072 458.544 206.832 458.406 206.508 458.31C206.196 458.202 205.818 458.106 205.374 458.022C204.954 457.95 204.546 457.854 204.15 457.734C203.766 457.602 203.418 457.44 203.106 457.248C202.806 457.056 202.566 456.816 202.386 456.528C202.206 456.228 202.116 455.862 202.116 455.43C202.116 454.914 202.254 454.452 202.53 454.044C202.806 453.624 203.196 453.3 203.7 453.072C204.216 452.832 204.822 452.712 205.518 452.712C206.526 452.712 207.336 452.952 207.948 453.432C208.56 453.912 208.92 454.59 209.028 455.466H207.282C207.234 455.058 207.054 454.746 206.742 454.53C206.43 454.302 206.016 454.188 205.5 454.188C204.984 454.188 204.588 454.29 204.312 454.494C204.036 454.698 203.898 454.968 203.898 455.304C203.898 455.52 203.976 455.712 204.132 455.88C204.288 456.048 204.516 456.192 204.816 456.312C205.128 456.42 205.506 456.522 205.95 456.618C206.586 456.738 207.156 456.888 207.66 457.068C208.164 457.248 208.566 457.512 208.866 457.86C209.166 458.208 209.316 458.706 209.316 459.354C209.328 459.918 209.184 460.416 208.884 460.848C208.596 461.28 208.182 461.616 207.642 461.856C207.114 462.096 206.484 462.216 205.752 462.216ZM214.765 462.216C214.057 462.216 213.439 462.072 212.911 461.784C212.395 461.496 211.993 461.064 211.705 460.488C211.429 459.912 211.291 459.186 211.291 458.31V452.928H213.091V458.112C213.091 458.964 213.277 459.606 213.649 460.038C214.021 460.47 214.555 460.686 215.251 460.686C215.719 460.686 216.139 460.572 216.511 460.344C216.895 460.116 217.195 459.786 217.411 459.354C217.627 458.922 217.735 458.394 217.735 457.77V452.928H219.535V462H217.933L217.807 460.452C217.531 461.004 217.129 461.436 216.601 461.748C216.073 462.06 215.461 462.216 214.765 462.216ZM221.999 462V452.928H223.619L223.781 454.638C223.985 454.23 224.249 453.888 224.573 453.612C224.897 453.324 225.275 453.102 225.707 452.946C226.151 452.79 226.655 452.712 227.219 452.712V454.62H226.571C226.199 454.62 225.845 454.668 225.509 454.764C225.173 454.848 224.873 454.998 224.609 455.214C224.357 455.43 224.159 455.724 224.015 456.096C223.871 456.468 223.799 456.93 223.799 457.482V462H221.999ZM233.478 462V452.928H235.098L235.224 454.206C235.512 453.738 235.896 453.372 236.376 453.108C236.856 452.844 237.396 452.712 237.996 452.712C238.452 452.712 238.866 452.778 239.238 452.91C239.61 453.03 239.94 453.216 240.228 453.468C240.516 453.72 240.75 454.032 240.93 454.404C241.254 453.876 241.686 453.462 242.226 453.162C242.778 452.862 243.36 452.712 243.972 452.712C244.704 452.712 245.334 452.862 245.862 453.162C246.39 453.45 246.792 453.888 247.068 454.476C247.344 455.052 247.482 455.772 247.482 456.636V462H245.7V456.816C245.7 455.976 245.526 455.34 245.178 454.908C244.842 454.476 244.344 454.26 243.684 454.26C243.24 454.26 242.844 454.374 242.496 454.602C242.148 454.83 241.872 455.16 241.668 455.592C241.476 456.024 241.38 456.552 241.38 457.176V462H239.58V456.816C239.58 455.976 239.406 455.34 239.058 454.908C238.722 454.476 238.224 454.26 237.564 454.26C237.144 454.26 236.76 454.374 236.412 454.602C236.064 454.83 235.788 455.16 235.584 455.592C235.38 456.024 235.278 456.552 235.278 457.176V462H233.478ZM253.912 462.216C253.048 462.216 252.28 462.018 251.608 461.622C250.936 461.226 250.408 460.674 250.024 459.966C249.652 459.258 249.466 458.436 249.466 457.5C249.466 456.54 249.652 455.706 250.024 454.998C250.408 454.278 250.936 453.72 251.608 453.324C252.28 452.916 253.06 452.712 253.948 452.712C254.836 452.712 255.598 452.91 256.234 453.306C256.87 453.702 257.362 454.23 257.71 454.89C258.058 455.538 258.232 456.258 258.232 457.05C258.232 457.17 258.226 457.302 258.214 457.446C258.214 457.578 258.208 457.728 258.196 457.896H250.78V456.618H256.432C256.396 455.862 256.144 455.274 255.676 454.854C255.208 454.422 254.626 454.206 253.93 454.206C253.438 454.206 252.988 454.32 252.58 454.548C252.172 454.764 251.842 455.088 251.59 455.52C251.35 455.94 251.23 456.474 251.23 457.122V457.626C251.23 458.298 251.35 458.868 251.59 459.336C251.842 459.792 252.172 460.14 252.58 460.38C252.988 460.608 253.432 460.722 253.912 460.722C254.488 460.722 254.962 460.596 255.334 460.344C255.706 460.092 255.982 459.75 256.162 459.318H257.962C257.806 459.87 257.542 460.368 257.17 460.812C256.798 461.244 256.336 461.586 255.784 461.838C255.244 462.09 254.62 462.216 253.912 462.216ZM263.742 462.216C262.974 462.216 262.302 462.09 261.726 461.838C261.15 461.586 260.694 461.232 260.358 460.776C260.022 460.32 259.818 459.786 259.746 459.174H261.582C261.642 459.462 261.756 459.726 261.924 459.966C262.104 460.206 262.344 460.398 262.644 460.542C262.956 460.686 263.322 460.758 263.742 460.758C264.138 460.758 264.462 460.704 264.714 460.596C264.978 460.476 265.17 460.32 265.29 460.128C265.41 459.924 265.47 459.708 265.47 459.48C265.47 459.144 265.386 458.892 265.218 458.724C265.062 458.544 264.822 458.406 264.498 458.31C264.186 458.202 263.808 458.106 263.364 458.022C262.944 457.95 262.536 457.854 262.14 457.734C261.756 457.602 261.408 457.44 261.096 457.248C260.796 457.056 260.556 456.816 260.376 456.528C260.196 456.228 260.106 455.862 260.106 455.43C260.106 454.914 260.244 454.452 260.52 454.044C260.796 453.624 261.186 453.3 261.69 453.072C262.206 452.832 262.812 452.712 263.508 452.712C264.516 452.712 265.326 452.952 265.938 453.432C266.55 453.912 266.91 454.59 267.018 455.466H265.272C265.224 455.058 265.044 454.746 264.732 454.53C264.42 454.302 264.006 454.188 263.49 454.188C262.974 454.188 262.578 454.29 262.302 454.494C262.026 454.698 261.888 454.968 261.888 455.304C261.888 455.52 261.966 455.712 262.122 455.88C262.278 456.048 262.506 456.192 262.806 456.312C263.118 456.42 263.496 456.522 263.94 456.618C264.576 456.738 265.146 456.888 265.65 457.068C266.154 457.248 266.556 457.512 266.856 457.86C267.156 458.208 267.306 458.706 267.306 459.354C267.318 459.918 267.174 460.416 266.874 460.848C266.586 461.28 266.172 461.616 265.632 461.856C265.104 462.096 264.474 462.216 263.742 462.216ZM272.755 462.216C272.047 462.216 271.429 462.072 270.901 461.784C270.385 461.496 269.983 461.064 269.695 460.488C269.419 459.912 269.281 459.186 269.281 458.31V452.928H271.081V458.112C271.081 458.964 271.267 459.606 271.639 460.038C272.011 460.47 272.545 460.686 273.241 460.686C273.709 460.686 274.129 460.572 274.501 460.344C274.885 460.116 275.185 459.786 275.401 459.354C275.617 458.922 275.725 458.394 275.725 457.77V452.928H277.525V462H275.923L275.797 460.452C275.521 461.004 275.119 461.436 274.591 461.748C274.063 462.06 273.451 462.216 272.755 462.216ZM279.99 462V452.928H281.61L281.772 454.638C281.976 454.23 282.24 453.888 282.564 453.612C282.888 453.324 283.266 453.102 283.698 452.946C284.142 452.79 284.646 452.712 285.21 452.712V454.62H284.562C284.19 454.62 283.836 454.668 283.5 454.764C283.164 454.848 282.864 454.998 282.6 455.214C282.348 455.43 282.15 455.724 282.006 456.096C281.862 456.468 281.79 456.93 281.79 457.482V462H279.99ZM290.685 462.216C289.821 462.216 289.053 462.018 288.381 461.622C287.709 461.226 287.181 460.674 286.797 459.966C286.425 459.258 286.239 458.436 286.239 457.5C286.239 456.54 286.425 455.706 286.797 454.998C287.181 454.278 287.709 453.72 288.381 453.324C289.053 452.916 289.833 452.712 290.721 452.712C291.609 452.712 292.371 452.91 293.007 453.306C293.643 453.702 294.135 454.23 294.483 454.89C294.831 455.538 295.005 456.258 295.005 457.05C295.005 457.17 294.999 457.302 294.987 457.446C294.987 457.578 294.981 457.728 294.969 457.896H287.553V456.618H293.205C293.169 455.862 292.917 455.274 292.449 454.854C291.981 454.422 291.399 454.206 290.703 454.206C290.211 454.206 289.761 454.32 289.353 454.548C288.945 454.764 288.615 455.088 288.363 455.52C288.123 455.94 288.003 456.474 288.003 457.122V457.626C288.003 458.298 288.123 458.868 288.363 459.336C288.615 459.792 288.945 460.14 289.353 460.38C289.761 460.608 290.205 460.722 290.685 460.722C291.261 460.722 291.735 460.596 292.107 460.344C292.479 460.092 292.755 459.75 292.935 459.318H294.735C294.579 459.87 294.315 460.368 293.943 460.812C293.571 461.244 293.109 461.586 292.557 461.838C292.017 462.09 291.393 462.216 290.685 462.216ZM141.676 485.216C140.932 485.216 140.314 485.09 139.822 484.838C139.33 484.586 138.964 484.25 138.724 483.83C138.484 483.398 138.364 482.936 138.364 482.444C138.364 481.844 138.52 481.334 138.832 480.914C139.144 480.482 139.588 480.152 140.164 479.924C140.74 479.696 141.43 479.582 142.234 479.582H144.592C144.592 479.054 144.514 478.616 144.358 478.268C144.202 477.92 143.968 477.662 143.656 477.494C143.356 477.314 142.972 477.224 142.504 477.224C141.964 477.224 141.502 477.356 141.118 477.62C140.734 477.872 140.494 478.25 140.398 478.754H138.598C138.67 478.118 138.886 477.578 139.246 477.134C139.618 476.678 140.092 476.33 140.668 476.09C141.244 475.838 141.856 475.712 142.504 475.712C143.356 475.712 144.07 475.862 144.646 476.162C145.222 476.462 145.654 476.888 145.942 477.44C146.242 477.98 146.392 478.628 146.392 479.384V485H144.826L144.682 483.47C144.55 483.71 144.394 483.938 144.214 484.154C144.034 484.37 143.818 484.556 143.566 484.712C143.326 484.868 143.044 484.988 142.72 485.072C142.408 485.168 142.06 485.216 141.676 485.216ZM142.018 483.758C142.402 483.758 142.75 483.68 143.062 483.524C143.374 483.368 143.638 483.158 143.854 482.894C144.082 482.618 144.25 482.312 144.358 481.976C144.478 481.628 144.544 481.274 144.556 480.914V480.86H142.414C141.898 480.86 141.478 480.926 141.154 481.058C140.842 481.178 140.614 481.346 140.47 481.562C140.326 481.778 140.254 482.03 140.254 482.318C140.254 482.618 140.32 482.876 140.452 483.092C140.596 483.296 140.8 483.458 141.064 483.578C141.328 483.698 141.646 483.758 142.018 483.758ZM150.947 485L147.545 475.928H149.435L152.009 483.272L154.601 475.928H156.455L153.071 485H150.947ZM161.741 485.216C160.877 485.216 160.109 485.018 159.437 484.622C158.765 484.226 158.237 483.674 157.853 482.966C157.481 482.258 157.295 481.436 157.295 480.5C157.295 479.54 157.481 478.706 157.853 477.998C158.237 477.278 158.765 476.72 159.437 476.324C160.109 475.916 160.889 475.712 161.777 475.712C162.665 475.712 163.427 475.91 164.063 476.306C164.699 476.702 165.191 477.23 165.539 477.89C165.887 478.538 166.061 479.258 166.061 480.05C166.061 480.17 166.055 480.302 166.043 480.446C166.043 480.578 166.037 480.728 166.025 480.896H158.609V479.618H164.261C164.225 478.862 163.973 478.274 163.505 477.854C163.037 477.422 162.455 477.206 161.759 477.206C161.267 477.206 160.817 477.32 160.409 477.548C160.001 477.764 159.671 478.088 159.419 478.52C159.179 478.94 159.059 479.474 159.059 480.122V480.626C159.059 481.298 159.179 481.868 159.419 482.336C159.671 482.792 160.001 483.14 160.409 483.38C160.817 483.608 161.261 483.722 161.741 483.722C162.317 483.722 162.791 483.596 163.163 483.344C163.535 483.092 163.811 482.75 163.991 482.318H165.791C165.635 482.87 165.371 483.368 164.999 483.812C164.627 484.244 164.165 484.586 163.613 484.838C163.073 485.09 162.449 485.216 161.741 485.216ZM172.255 485.216C171.379 485.216 170.599 485.018 169.915 484.622C169.231 484.214 168.691 483.656 168.295 482.948C167.911 482.24 167.719 481.418 167.719 480.482C167.719 479.534 167.911 478.706 168.295 477.998C168.691 477.278 169.231 476.72 169.915 476.324C170.599 475.916 171.379 475.712 172.255 475.712C173.359 475.712 174.283 476 175.027 476.576C175.771 477.152 176.245 477.932 176.449 478.916H174.577C174.457 478.388 174.181 477.98 173.749 477.692C173.329 477.404 172.825 477.26 172.237 477.26C171.757 477.26 171.313 477.386 170.905 477.638C170.497 477.878 170.167 478.238 169.915 478.718C169.675 479.186 169.555 479.768 169.555 480.464C169.555 480.98 169.627 481.442 169.771 481.85C169.915 482.246 170.107 482.582 170.347 482.858C170.599 483.134 170.887 483.344 171.211 483.488C171.535 483.62 171.877 483.686 172.237 483.686C172.633 483.686 172.987 483.626 173.299 483.506C173.623 483.374 173.893 483.182 174.109 482.93C174.337 482.678 174.493 482.378 174.577 482.03H176.449C176.245 482.99 175.771 483.764 175.027 484.352C174.283 484.928 173.359 485.216 172.255 485.216ZM188.705 485.216C187.517 485.216 186.479 484.946 185.591 484.406C184.703 483.866 184.013 483.11 183.521 482.138C183.029 481.166 182.783 480.032 182.783 478.736C182.783 477.452 183.029 476.318 183.521 475.334C184.025 474.35 184.739 473.582 185.663 473.03C186.599 472.466 187.703 472.184 188.975 472.184C190.403 472.184 191.597 472.532 192.557 473.228C193.517 473.912 194.135 474.866 194.411 476.09H192.359C192.179 475.394 191.801 474.848 191.225 474.452C190.649 474.044 189.893 473.84 188.957 473.84C188.069 473.84 187.295 474.038 186.635 474.434C185.987 474.83 185.489 475.394 185.141 476.126C184.793 476.858 184.619 477.728 184.619 478.736C184.619 479.756 184.793 480.632 185.141 481.364C185.489 482.096 185.981 482.654 186.617 483.038C187.253 483.422 187.985 483.614 188.813 483.614C190.085 483.614 191.039 483.248 191.675 482.516C192.323 481.784 192.701 480.806 192.809 479.582H189.335V478.196H194.627V485H192.989L192.827 483.074C192.539 483.542 192.203 483.938 191.819 484.262C191.447 484.574 191.009 484.814 190.505 484.982C190.001 485.138 189.401 485.216 188.705 485.216ZM196.907 485V472.04H198.707V485H196.907ZM202.222 488.96L204.436 483.992H203.914L200.332 475.928H202.276L205.12 482.516L207.982 475.928H209.872L204.112 488.96H202.222ZM214.479 485.216C213.711 485.216 213.039 485.09 212.463 484.838C211.887 484.586 211.431 484.232 211.095 483.776C210.759 483.32 210.555 482.786 210.483 482.174H212.319C212.379 482.462 212.493 482.726 212.661 482.966C212.841 483.206 213.081 483.398 213.381 483.542C213.693 483.686 214.059 483.758 214.479 483.758C214.875 483.758 215.199 483.704 215.451 483.596C215.715 483.476 215.907 483.32 216.027 483.128C216.147 482.924 216.207 482.708 216.207 482.48C216.207 482.144 216.123 481.892 215.955 481.724C215.799 481.544 215.559 481.406 215.235 481.31C214.923 481.202 214.545 481.106 214.101 481.022C213.681 480.95 213.273 480.854 212.877 480.734C212.493 480.602 212.145 480.44 211.833 480.248C211.533 480.056 211.293 479.816 211.113 479.528C210.933 479.228 210.843 478.862 210.843 478.43C210.843 477.914 210.981 477.452 211.257 477.044C211.533 476.624 211.923 476.3 212.427 476.072C212.943 475.832 213.549 475.712 214.245 475.712C215.253 475.712 216.063 475.952 216.675 476.432C217.287 476.912 217.647 477.59 217.755 478.466H216.009C215.961 478.058 215.781 477.746 215.469 477.53C215.157 477.302 214.743 477.188 214.227 477.188C213.711 477.188 213.315 477.29 213.039 477.494C212.763 477.698 212.625 477.968 212.625 478.304C212.625 478.52 212.703 478.712 212.859 478.88C213.015 479.048 213.243 479.192 213.543 479.312C213.855 479.42 214.233 479.522 214.677 479.618C215.313 479.738 215.883 479.888 216.387 480.068C216.891 480.248 217.293 480.512 217.593 480.86C217.893 481.208 218.043 481.706 218.043 482.354C218.055 482.918 217.911 483.416 217.611 483.848C217.323 484.28 216.909 484.616 216.369 484.856C215.841 485.096 215.211 485.216 214.479 485.216ZM223.672 485.216C222.904 485.216 222.232 485.09 221.656 484.838C221.08 484.586 220.624 484.232 220.288 483.776C219.952 483.32 219.748 482.786 219.676 482.174H221.512C221.572 482.462 221.686 482.726 221.854 482.966C222.034 483.206 222.274 483.398 222.574 483.542C222.886 483.686 223.252 483.758 223.672 483.758C224.068 483.758 224.392 483.704 224.644 483.596C224.908 483.476 225.1 483.32 225.22 483.128C225.34 482.924 225.4 482.708 225.4 482.48C225.4 482.144 225.316 481.892 225.148 481.724C224.992 481.544 224.752 481.406 224.428 481.31C224.116 481.202 223.738 481.106 223.294 481.022C222.874 480.95 222.466 480.854 222.07 480.734C221.686 480.602 221.338 480.44 221.026 480.248C220.726 480.056 220.486 479.816 220.306 479.528C220.126 479.228 220.036 478.862 220.036 478.43C220.036 477.914 220.174 477.452 220.45 477.044C220.726 476.624 221.116 476.3 221.62 476.072C222.136 475.832 222.742 475.712 223.438 475.712C224.446 475.712 225.256 475.952 225.868 476.432C226.48 476.912 226.84 477.59 226.948 478.466H225.202C225.154 478.058 224.974 477.746 224.662 477.53C224.35 477.302 223.936 477.188 223.42 477.188C222.904 477.188 222.508 477.29 222.232 477.494C221.956 477.698 221.818 477.968 221.818 478.304C221.818 478.52 221.896 478.712 222.052 478.88C222.208 479.048 222.436 479.192 222.736 479.312C223.048 479.42 223.426 479.522 223.87 479.618C224.506 479.738 225.076 479.888 225.58 480.068C226.084 480.248 226.486 480.512 226.786 480.86C227.086 481.208 227.236 481.706 227.236 482.354C227.248 482.918 227.104 483.416 226.804 483.848C226.516 484.28 226.102 484.616 225.562 484.856C225.034 485.096 224.404 485.216 223.672 485.216ZM234.393 481.256L234.177 472.4H236.121L235.923 481.256H234.393ZM235.167 485.09C234.819 485.09 234.531 484.982 234.303 484.766C234.087 484.538 233.979 484.268 233.979 483.956C233.979 483.632 234.087 483.362 234.303 483.146C234.531 482.918 234.819 482.804 235.167 482.804C235.503 482.804 235.779 482.918 235.995 483.146C236.223 483.362 236.337 483.632 236.337 483.956C236.337 484.268 236.223 484.538 235.995 484.766C235.779 484.982 235.503 485.09 235.167 485.09Z" fill="white"/>
</g>
<rect width="375" height="46" fill="#013791"/>
<rect y="797" width="375" height="15" fill="#061838"/>
<defs>
<linearGradient id="paint0_linear_6_87" x1="187.5" y1="0" x2="187.5" y2="812" gradientUnits="userSpaceOnUse">
<stop stop-color="#003A9B"/>
<stop offset="1" stop-color="#051633"/>
</linearGradient>
<linearGradient id="paint1_linear_6_87" x1="190.73" y1="524.359" x2="190.73" y2="885.552" gradientUnits="userSpaceOnUse">
<stop stop-color="#003A9B"/>
<stop offset="1" stop-color="#082F70"/>
</linearGradient>
<linearGradient id="paint2_linear_6_87" x1="267.5" y1="592" x2="267.5" y2="1017" gradientUnits="userSpaceOnUse">
<stop stop-color="#003A9B"/>
<stop offset="1" stop-color="#082F70"/>
</linearGradient>
<linearGradient id="paint3_linear_6_87" x1="237.119" y1="480.199" x2="237.119" y2="490.907" gradientUnits="userSpaceOnUse">
<stop stop-color="white"/>
<stop offset="1" stop-color="#99DAFF"/>
</linearGradient>
<linearGradient id="paint4_linear_6_87" x1="208.572" y1="451.641" x2="208.572" y2="462.348" gradientUnits="userSpaceOnUse">
<stop stop-color="white"/>
<stop offset="1" stop-color="#99DAFF"/>
</linearGradient>
<linearGradient id="paint5_linear_6_87" x1="64.0178" y1="414.168" x2="64.0178" y2="424.875" gradientUnits="userSpaceOnUse">
<stop stop-color="white"/>
<stop offset="1" stop-color="#99DAFF"/>
</linearGradient>
<linearGradient id="paint6_linear_6_87" x1="14.0178" y1="374.164" x2="14.0178" y2="384.872" gradientUnits="userSpaceOnUse">
<stop stop-color="white"/>
<stop offset="1" stop-color="#99DAFF"/>
</linearGradient>
<linearGradient id="paint7_linear_6_87" x1="260.322" y1="341" x2="260.322" y2="351.707" gradientUnits="userSpaceOnUse">
<stop stop-color="white"/>
<stop offset="1" stop-color="#99DAFF"/>
</linearGradient>
<linearGradient id="paint8_linear_6_87" x1="113.619" y1="367.77" x2="113.619" y2="378.477" gradientUnits="userSpaceOnUse">
<stop stop-color="white"/>
<stop offset="1" stop-color="#99DAFF"/>
</linearGradient>
<linearGradient id="paint9_linear_6_87" x1="208.572" y1="398.105" x2="208.572" y2="408.813" gradientUnits="userSpaceOnUse">
<stop stop-color="white"/>
<stop offset="1" stop-color="#99DAFF"/>
</linearGradient>
<linearGradient id="paint10_linear_6_87" x1="186.266" y1="505.18" x2="186.266" y2="514.103" gradientUnits="userSpaceOnUse">
<stop stop-color="white"/>
<stop offset="1" stop-color="#99DAFF"/>
</linearGradient>
<linearGradient id="paint11_linear_6_87" x1="144.33" y1="485.551" x2="144.33" y2="496.258" gradientUnits="userSpaceOnUse">
<stop stop-color="white"/>
<stop offset="1" stop-color="#99DAFF"/>
</linearGradient>
<linearGradient id="paint12_linear_6_87" x1="44.3303" y1="515.547" x2="44.3303" y2="526.254" gradientUnits="userSpaceOnUse">
<stop stop-color="white"/>
<stop offset="1" stop-color="#99DAFF"/>
</linearGradient>
<linearGradient id="paint13_linear_6_87" x1="114.33" y1="625.547" x2="114.33" y2="636.254" gradientUnits="userSpaceOnUse">
<stop stop-color="white"/>
<stop offset="1" stop-color="#99DAFF"/>
</linearGradient>
<linearGradient id="paint14_linear_6_87" x1="142.546" y1="574.777" x2="142.546" y2="581.916" gradientUnits="userSpaceOnUse">
<stop stop-color="white"/>
<stop offset="1" stop-color="#99DAFF"/>
</linearGradient>
<linearGradient id="paint15_linear_6_87" x1="85.4285" y1="524.816" x2="85.4285" y2="531.955" gradientUnits="userSpaceOnUse">
<stop stop-color="white"/>
<stop offset="1" stop-color="#99DAFF"/>
</linearGradient>
<linearGradient id="paint16_linear_6_87" x1="79.4285" y1="584.812" x2="79.4285" y2="591.951" gradientUnits="userSpaceOnUse">
<stop stop-color="white"/>
<stop offset="1" stop-color="#99DAFF"/>
</linearGradient>
<linearGradient id="paint17_linear_6_87" x1="5.42852" y1="554.812" x2="5.42852" y2="561.951" gradientUnits="userSpaceOnUse">
<stop stop-color="white"/>
<stop offset="1" stop-color="#99DAFF"/>
</linearGradient>
<linearGradient id="paint18_linear_6_87" x1="28.327" y1="606.898" x2="28.327" y2="614.037" gradientUnits="userSpaceOnUse">
<stop stop-color="white"/>
<stop offset="1" stop-color="#99DAFF"/>
</linearGradient>
<linearGradient id="paint19_linear_6_87" x1="172.874" y1="546.23" x2="172.874" y2="553.369" gradientUnits="userSpaceOnUse">
<stop stop-color="white"/>
<stop offset="1" stop-color="#99DAFF"/>
</linearGradient>
<linearGradient id="paint20_linear_6_87" x1="124.694" y1="449.863" x2="124.694" y2="457.002" gradientUnits="userSpaceOnUse">
<stop stop-color="white"/>
<stop offset="1" stop-color="#99DAFF"/>
</linearGradient>
<linearGradient id="paint21_linear_6_87" x1="54.6942" y1="348.859" x2="54.6942" y2="355.998" gradientUnits="userSpaceOnUse">
<stop stop-color="white"/>
<stop offset="1" stop-color="#99DAFF"/>
</linearGradient>
<linearGradient id="paint22_linear_6_87" x1="36.3599" y1="478.41" x2="36.3599" y2="487.333" gradientUnits="userSpaceOnUse">
<stop stop-color="white"/>
<stop offset="1" stop-color="#99DAFF"/>
</linearGradient>
<linearGradient id="paint23_linear_6_87" x1="358.475" y1="524.816" x2="358.475" y2="531.955" gradientUnits="userSpaceOnUse">
<stop stop-color="white"/>
<stop offset="1" stop-color="#99DAFF"/>
</linearGradient>
<linearGradient id="paint24_linear_6_87" x1="285.304" y1="428.449" x2="285.304" y2="435.588" gradientUnits="userSpaceOnUse">
<stop stop-color="white"/>
<stop offset="1" stop-color="#99DAFF"/>
</linearGradient>
<linearGradient id="paint25_linear_6_87" x1="365.304" y1="428.445" x2="365.304" y2="435.584" gradientUnits="userSpaceOnUse">
<stop stop-color="white"/>
<stop offset="1" stop-color="#99DAFF"/>
</linearGradient>
<linearGradient id="paint26_linear_6_87" x1="305.304" y1="378.445" x2="305.304" y2="385.584" gradientUnits="userSpaceOnUse">
<stop stop-color="white"/>
<stop offset="1" stop-color="#99DAFF"/>
</linearGradient>
<linearGradient id="paint27_linear_6_87" x1="345.304" y1="328.445" x2="345.304" y2="335.584" gradientUnits="userSpaceOnUse">
<stop stop-color="white"/>
<stop offset="1" stop-color="#99DAFF"/>
</linearGradient>
<linearGradient id="paint28_linear_6_87" x1="355.304" y1="308.445" x2="355.304" y2="315.584" gradientUnits="userSpaceOnUse">
<stop stop-color="white"/>
<stop offset="1" stop-color="#99DAFF"/>
</linearGradient>
<linearGradient id="paint29_linear_6_87" x1="324.569" y1="521.242" x2="324.569" y2="528.38" gradientUnits="userSpaceOnUse">
<stop stop-color="white"/>
<stop offset="1" stop-color="#99DAFF"/>
</linearGradient>
<linearGradient id="paint30_linear_6_87" x1="271.026" y1="553.363" x2="271.026" y2="564.071" gradientUnits="userSpaceOnUse">
<stop stop-color="white"/>
<stop offset="1" stop-color="#99DAFF"/>
</linearGradient>
<linearGradient id="paint31_linear_6_87" x1="285.304" y1="494.473" x2="285.304" y2="501.611" gradientUnits="userSpaceOnUse">
<stop stop-color="white"/>
<stop offset="1" stop-color="#99DAFF"/>
</linearGradient>
<linearGradient id="paint32_linear_6_87" x1="304.047" y1="444.508" x2="304.047" y2="453.431" gradientUnits="userSpaceOnUse">
<stop stop-color="white"/>
<stop offset="1" stop-color="#99DAFF"/>
</linearGradient>
<linearGradient id="paint33_linear_6_87" x1="358.479" y1="373.125" x2="358.479" y2="383.832" gradientUnits="userSpaceOnUse">
<stop stop-color="white"/>
<stop offset="1" stop-color="#99DAFF"/>
</linearGradient>
<linearGradient id="paint34_linear_6_87" x1="370.971" y1="485.551" x2="370.971" y2="496.258" gradientUnits="userSpaceOnUse">
<stop stop-color="white"/>
<stop offset="1" stop-color="#99DAFF"/>
</linearGradient>
<linearGradient id="paint35_linear_6_87" x1="163.959" y1="177.844" x2="163.959" y2="167.136" gradientUnits="userSpaceOnUse">
<stop stop-color="white"/>
<stop offset="1" stop-color="#99DAFF"/>
</linearGradient>
<linearGradient id="paint36_linear_6_87" x1="237.357" y1="262.711" x2="237.357" y2="252.003" gradientUnits="userSpaceOnUse">
<stop stop-color="white"/>
<stop offset="1" stop-color="#99DAFF"/>
</linearGradient>
<linearGradient id="paint37_linear_6_87" x1="337.06" y1="243.874" x2="337.06" y2="233.167" gradientUnits="userSpaceOnUse">
<stop stop-color="white"/>
<stop offset="1" stop-color="#99DAFF"/>
</linearGradient>
<linearGradient id="paint38_linear_6_87" x1="120.756" y1="317.042" x2="120.756" y2="306.335" gradientUnits="userSpaceOnUse">
<stop stop-color="white"/>
<stop offset="1" stop-color="#99DAFF"/>
</linearGradient>
<linearGradient id="paint39_linear_6_87" x1="267.459" y1="290.274" x2="267.459" y2="279.567" gradientUnits="userSpaceOnUse">
<stop stop-color="white"/>
<stop offset="1" stop-color="#99DAFF"/>
</linearGradient>
<linearGradient id="paint40_linear_6_87" x1="192.506" y1="259.938" x2="192.506" y2="249.231" gradientUnits="userSpaceOnUse">
<stop stop-color="white"/>
<stop offset="1" stop-color="#99DAFF"/>
</linearGradient>
<linearGradient id="paint41_linear_6_87" x1="214.812" y1="152.86" x2="214.812" y2="143.937" gradientUnits="userSpaceOnUse">
<stop stop-color="white"/>
<stop offset="1" stop-color="#99DAFF"/>
</linearGradient>
<linearGradient id="paint42_linear_6_87" x1="256.748" y1="172.491" x2="256.748" y2="161.784" gradientUnits="userSpaceOnUse">
<stop stop-color="white"/>
<stop offset="1" stop-color="#99DAFF"/>
</linearGradient>
<linearGradient id="paint43_linear_6_87" x1="258.532" y1="83.2657" x2="258.532" y2="76.1274" gradientUnits="userSpaceOnUse">
<stop stop-color="white"/>
<stop offset="1" stop-color="#99DAFF"/>
</linearGradient>
<linearGradient id="paint44_linear_6_87" x1="315.65" y1="133.226" x2="315.65" y2="126.087" gradientUnits="userSpaceOnUse">
<stop stop-color="white"/>
<stop offset="1" stop-color="#99DAFF"/>
</linearGradient>
<linearGradient id="paint45_linear_6_87" x1="345.65" y1="113.23" x2="345.65" y2="106.092" gradientUnits="userSpaceOnUse">
<stop stop-color="white"/>
<stop offset="1" stop-color="#99DAFF"/>
</linearGradient>
<linearGradient id="paint46_linear_6_87" x1="372.751" y1="51.1407" x2="372.751" y2="44.0024" gradientUnits="userSpaceOnUse">
<stop stop-color="white"/>
<stop offset="1" stop-color="#99DAFF"/>
</linearGradient>
<linearGradient id="paint47_linear_6_87" x1="228.204" y1="111.812" x2="228.204" y2="104.674" gradientUnits="userSpaceOnUse">
<stop stop-color="white"/>
<stop offset="1" stop-color="#99DAFF"/>
</linearGradient>
<linearGradient id="paint48_linear_6_87" x1="276.384" y1="208.181" x2="276.384" y2="201.042" gradientUnits="userSpaceOnUse">
<stop stop-color="white"/>
<stop offset="1" stop-color="#99DAFF"/>
</linearGradient>
<linearGradient id="paint49_linear_6_87" x1="364.718" y1="179.632" x2="364.718" y2="170.709" gradientUnits="userSpaceOnUse">
<stop stop-color="white"/>
<stop offset="1" stop-color="#99DAFF"/>
</linearGradient>
<linearGradient id="paint50_linear_6_87" x1="42.6027" y1="133.226" x2="42.6027" y2="126.087" gradientUnits="userSpaceOnUse">
<stop stop-color="white"/>
<stop offset="1" stop-color="#99DAFF"/>
</linearGradient>
<linearGradient id="paint51_linear_6_87" x1="115.775" y1="229.595" x2="115.775" y2="222.456" gradientUnits="userSpaceOnUse">
<stop stop-color="white"/>
<stop offset="1" stop-color="#99DAFF"/>
</linearGradient>
<linearGradient id="paint52_linear_6_87" x1="76.509" y1="136.797" x2="76.509" y2="129.659" gradientUnits="userSpaceOnUse">
<stop stop-color="white"/>
<stop offset="1" stop-color="#99DAFF"/>
</linearGradient>
<linearGradient id="paint53_linear_6_87" x1="130.053" y1="104.68" x2="130.053" y2="93.972" gradientUnits="userSpaceOnUse">
<stop stop-color="white"/>
<stop offset="1" stop-color="#99DAFF"/>
</linearGradient>
<linearGradient id="paint54_linear_6_87" x1="115.775" y1="163.57" x2="115.775" y2="156.432" gradientUnits="userSpaceOnUse">
<stop stop-color="white"/>
<stop offset="1" stop-color="#99DAFF"/>
</linearGradient>
<linearGradient id="paint55_linear_6_87" x1="97.0307" y1="213.532" x2="97.0307" y2="204.609" gradientUnits="userSpaceOnUse">
<stop stop-color="white"/>
<stop offset="1" stop-color="#99DAFF"/>
</linearGradient>
<linearGradient id="paint56_linear_6_87" x1="42.5994" y1="284.913" x2="42.5994" y2="274.206" gradientUnits="userSpaceOnUse">
<stop stop-color="white"/>
<stop offset="1" stop-color="#99DAFF"/>
</linearGradient>
<linearGradient id="paint57_linear_6_87" x1="30.1072" y1="172.491" x2="30.1072" y2="161.784" gradientUnits="userSpaceOnUse">
<stop stop-color="white"/>
<stop offset="1" stop-color="#99DAFF"/>
</linearGradient>
<linearGradient id="paint58_linear_6_87" x1="188" y1="697" x2="188" y2="812" gradientUnits="userSpaceOnUse">
<stop stop-color="#051B41" stop-opacity="0"/>
<stop offset="1" stop-color="#061735"/>
</linearGradient>
<linearGradient id="paint59_linear_6_87" x1="190.014" y1="225.613" x2="190.014" y2="295.224" gradientUnits="userSpaceOnUse">
<stop stop-color="#003A9B"/>
<stop offset="1" stop-color="#082F70"/>
</linearGradient>
</defs>
</svg>
